<?xml version="1.0" encoding="utf-8"?>
<!-- Generator: Adobe Illustrator 16.0.0, SVG Export Plug-In . SVG Version: 6.00 Build 0)  -->
<!DOCTYPE svg PUBLIC "-//W3C//DTD SVG 1.1//EN" "http://www.w3.org/Graphics/SVG/1.1/DTD/svg11.dtd">
<svg version="1.1" id="Isolation_Mode" xmlns="http://www.w3.org/2000/svg" xmlns:xlink="http://www.w3.org/1999/xlink" x="0px"
	 y="0px" width="208.988px" height="66px" viewBox="0 0 208.988 66" enable-background="new 0 0 208.988 66" xml:space="preserve">
<g>
	<g>
		<circle opacity="0" fill="#FFFFFF" cx="67.823" cy="286.035" r="25.211"/>
		<path opacity="0.0625" fill="#F5F0F0" d="M93.017,285.806c0,13.924-11.271,25.21-25.193,25.21s-25.193-11.286-25.193-25.21
			s11.271-25.21,25.193-25.21S93.017,271.882,93.017,285.806z"/>
		<path opacity="0.125" fill="#EBE1E1" d="M92.999,285.575c0,13.924-11.253,25.212-25.176,25.212s-25.176-11.288-25.176-25.212
			c0-13.923,11.253-25.21,25.176-25.21S92.999,271.652,92.999,285.575z"/>
		<path opacity="0.1875" fill="#E0D1D2" d="M92.981,285.346c0,13.924-11.235,25.211-25.158,25.211s-25.158-11.287-25.158-25.211
			s11.235-25.211,25.158-25.211S92.981,271.422,92.981,285.346z"/>
		<path opacity="0.25" fill="#D6C2C3" d="M92.963,285.115c0,13.924-11.217,25.211-25.14,25.211s-25.14-11.287-25.14-25.211
			s11.217-25.211,25.14-25.211S92.963,271.191,92.963,285.115z"/>
		<path opacity="0.3125" fill="#CCB3B3" d="M92.945,284.885c0,13.924-11.199,25.211-25.122,25.211s-25.122-11.287-25.122-25.211
			s11.199-25.211,25.122-25.211S92.945,270.961,92.945,284.885z"/>
		<path opacity="0.375" fill="#C2A4A4" d="M92.928,284.654c0,13.924-11.182,25.211-25.104,25.211s-25.104-11.287-25.104-25.211
			c0-13.923,11.182-25.211,25.104-25.211S92.928,270.731,92.928,284.654z"/>
		<path opacity="0.4375" fill="#B89495" d="M92.91,284.425c0,13.923-11.164,25.21-25.087,25.21s-25.087-11.287-25.087-25.21
			c0-13.924,11.164-25.211,25.087-25.211S92.91,270.501,92.91,284.425z"/>
		<path opacity="0.5" fill="#AE8586" d="M92.892,284.195c0,13.922-11.146,25.211-25.068,25.211s-25.069-11.289-25.069-25.211
			c0-13.924,11.146-25.211,25.069-25.211S92.892,270.271,92.892,284.195z"/>
		<path opacity="0.5625" fill="#A37677" d="M92.874,283.965c0,13.923-11.128,25.211-25.051,25.211s-25.052-11.288-25.052-25.211
			c0-13.924,11.129-25.211,25.052-25.211S92.874,270.041,92.874,283.965z"/>
		<path opacity="0.625" fill="#996768" d="M92.856,283.734c0,13.924-11.11,25.211-25.033,25.211s-25.034-11.287-25.034-25.211
			s11.111-25.211,25.034-25.211S92.856,269.811,92.856,283.734z"/>
		<path opacity="0.6875" fill="#8F5759" d="M92.839,283.504c0,13.924-11.093,25.211-25.016,25.211s-25.017-11.287-25.017-25.211
			s11.094-25.211,25.017-25.211S92.839,269.58,92.839,283.504z"/>
		<path opacity="0.75" fill="#85484A" d="M92.821,283.273c0,13.924-11.075,25.211-24.998,25.211s-24.999-11.287-24.999-25.211
			c0-13.923,11.076-25.21,24.999-25.21S92.821,269.351,92.821,283.273z"/>
		<path opacity="0.8125" fill="#7B393A" d="M92.804,283.043c0,13.924-11.058,25.211-24.98,25.211s-24.981-11.287-24.981-25.211
			c0-13.923,11.059-25.21,24.981-25.21S92.804,269.12,92.804,283.043z"/>
		<path opacity="0.875" fill="#702A2B" d="M92.786,282.814c0,13.922-11.04,25.209-24.963,25.209s-24.964-11.287-24.964-25.209
			c0-13.925,11.041-25.211,24.964-25.211S92.786,268.89,92.786,282.814z"/>
		<path opacity="0.9375" fill="#661A1C" d="M92.768,282.584c0,13.922-11.021,25.211-24.944,25.211s-24.946-11.289-24.946-25.211
			c0-13.924,11.023-25.211,24.946-25.211S92.768,268.66,92.768,282.584z"/>
		<path fill="#5C0B0D" d="M92.75,282.354c0,13.923-11.004,25.211-24.927,25.211s-24.929-11.288-24.929-25.211
			c0-13.924,11.006-25.211,24.929-25.211S92.75,268.43,92.75,282.354z"/>
	</g>
	<circle fill="#8A1014" cx="67.823" cy="283.06" r="25.211"/>
	<g>
		<defs>
			<circle id="SVGID_1_" cx="67.823" cy="282.209" r="25.211"/>
		</defs>
		<linearGradient id="SVGID_2_" gradientUnits="userSpaceOnUse" x1="67.8232" y1="307.4199" x2="67.8232" y2="256.9971">
			<stop  offset="0" style="stop-color:#C7171D"/>
			<stop  offset="0.5" style="stop-color:#FF1D25"/>
			<stop  offset="1" style="stop-color:#FF5257"/>
		</linearGradient>
		<use xlink:href="#SVGID_1_"  overflow="visible" fill="url(#SVGID_2_)"/>
		<clipPath id="SVGID_3_">
			<use xlink:href="#SVGID_1_"  overflow="visible"/>
		</clipPath>
	</g>
	<g>
		<path fill="#6E0D10" d="M68.047,261.604c11.545,0,20.905,9.359,20.905,20.906c0,11.545-9.36,20.905-20.905,20.905
			c-11.547,0-20.907-9.36-20.907-20.905C47.14,270.963,56.5,261.604,68.047,261.604L68.047,261.604z M68.047,260.082
			c-5.991,0-11.623,2.332-15.859,6.568s-6.568,9.867-6.568,15.859c0,5.99,2.332,11.622,6.568,15.857
			c4.236,4.236,9.868,6.569,15.859,6.569c5.99,0,11.623-2.333,15.857-6.569c4.237-4.235,6.569-9.867,6.569-15.857
			c0-5.992-2.332-11.623-6.569-15.859C79.67,262.414,74.037,260.082,68.047,260.082L68.047,260.082z"/>
		<path fill="#FFFFFF" d="M68.047,261.826c11.545,0,20.905,9.359,20.905,20.905s-9.36,20.905-20.905,20.905
			c-11.547,0-20.907-9.359-20.907-20.905S56.5,261.826,68.047,261.826L68.047,261.826z M68.047,260.304
			c-5.991,0-11.623,2.333-15.859,6.569s-6.568,9.867-6.568,15.858s2.332,11.622,6.568,15.858s9.868,6.57,15.859,6.57
			c5.99,0,11.623-2.334,15.857-6.57c4.237-4.236,6.569-9.867,6.569-15.858s-2.332-11.622-6.569-15.858
			C79.67,262.637,74.037,260.304,68.047,260.304L68.047,260.304z"/>
		<g>
			<defs>
				<circle id="SVGID_4_" cx="68.046" cy="282.731" r="20.906"/>
			</defs>
			<clipPath id="SVGID_5_">
				<use xlink:href="#SVGID_4_"  overflow="visible"/>
			</clipPath>
			<g clip-path="url(#SVGID_5_)">
				<path fill-rule="evenodd" clip-rule="evenodd" fill="#6E0D10" d="M87.748,299.317c0,0.224,0,0.448,0,0.672
					c-4.7,0-9.399,0-14.1,0c-0.13-1.817-4.48-4.78-5.493-4.668c-2.756-0.176-10.513-5.284-10.642-5.529
					c-2.779-1.124-2.42-4.075,0.105-3.675c-2.079-0.103-3.099-3.158-0.396-3.693c-1.405-0.373-1.698-4.131,1.263-3.94
					c-1.552-0.631-1.846-4.419,2.18-3.483c0.686,0.159,6.498,2.418,8.172,2.272c0.008-0.524,0.206-1.367,0.055-2.126
					c-0.135-0.682-0.769-1.464-1.117-2.238c-0.354-0.788-0.754-1.645-0.896-2.519c-0.254-1.556,0.356-2.896,0.784-4.028
					c0.52-1.379,1.362-3.513,3.077-2.35c0.031,1.518-0.49,2.946-0.224,4.42c0.08,0.451,0.27,0.91,0.447,1.342
					c0.18,0.438,0.28,0.908,0.448,1.344c0.353,0.914,1.028,2.021,1.623,2.854c0.672,0.945,1.618,1.65,1.902,2.574
					c0.165,0.541,0.111,1.404,0.167,2.126c0.055,0.706,0.021,1.456,0.112,2.015c0.14,0.86,0.428,1.859,0.615,2.854
					s0.031,2.251,0.392,3.134c0.272,0.669,1.086,1.049,1.734,1.565C81.812,291.311,84.262,296.121,87.748,299.317z"/>
				<path fill-rule="evenodd" clip-rule="evenodd" fill="#6E0D10" d="M72.479,303.781c0,0-1.172-2.595-0.351-3.218
					c0.597-0.452,0.034-0.769-0.021-1.663c-0.154-0.93,7.241-11,9.646-8.686c0,0,7.541,5.603,7.645,8.607
					S72.479,303.781,72.479,303.781z"/>
			</g>
			<g clip-path="url(#SVGID_5_)">
				<path fill-rule="evenodd" clip-rule="evenodd" fill="#FFFFFF" d="M87.748,299.54c0,0.224,0,0.448,0,0.671c-4.7,0-9.399,0-14.1,0
					c-0.13-1.816-4.48-4.779-5.493-4.666c-2.756-0.177-10.513-5.285-10.642-5.531c-2.779-1.125-2.42-4.074,0.105-3.674
					c-2.079-0.104-3.099-3.159-0.396-3.693c-1.405-0.373-1.698-4.131,1.263-3.941c-1.552-0.631-1.846-4.418,2.18-3.482
					c0.686,0.16,6.498,2.418,8.172,2.271c0.008-0.523,0.206-1.367,0.055-2.127c-0.135-0.68-0.769-1.463-1.117-2.237
					c-0.354-0.788-0.754-1.644-0.896-2.519c-0.254-1.555,0.356-2.895,0.784-4.028c0.52-1.378,1.362-3.513,3.077-2.35
					c0.031,1.519-0.49,2.947-0.224,4.421c0.08,0.451,0.27,0.909,0.447,1.342c0.18,0.438,0.28,0.908,0.448,1.344
					c0.353,0.914,1.028,2.021,1.623,2.854c0.672,0.945,1.618,1.649,1.902,2.573c0.165,0.541,0.111,1.405,0.167,2.126
					c0.055,0.707,0.021,1.456,0.112,2.015c0.14,0.86,0.428,1.86,0.615,2.854s0.031,2.251,0.392,3.133
					c0.272,0.67,1.086,1.049,1.734,1.566C81.812,291.533,84.262,296.344,87.748,299.54z"/>
				<path fill-rule="evenodd" clip-rule="evenodd" fill="#FFFFFF" d="M72.479,304.004c0,0-1.172-2.596-0.351-3.219
					c0.597-0.452,0.034-0.768-0.021-1.662c-0.154-0.93,7.241-11,9.646-8.688c0,0,7.541,5.604,7.645,8.609
					C89.501,302.049,72.479,304.004,72.479,304.004z"/>
			</g>
		</g>
	</g>
</g>
<g>
	<path fill="#555555" d="M117.003,278.753H113.5v-11.199h-4.342v-2.64c2.442,0.074,4.662-0.789,5.058-3.429h2.787V278.753z"/>
	<path fill="#555555" d="M127.882,261.141c3.453,0,6.364,2.17,6.364,8.904c0,6.883-2.911,9.054-6.364,9.054
		c-3.429,0-6.314-2.171-6.314-9.054C121.567,263.311,124.453,261.141,127.882,261.141z M127.882,276.212
		c2.861,0,2.861-4.218,2.861-6.167c0-1.801,0-6.019-2.861-6.019c-2.837,0-2.813,4.218-2.813,6.019
		C125.069,271.994,125.069,276.212,127.882,276.212z"/>
	<path fill="#555555" d="M141.598,261.141c3.453,0,6.364,2.17,6.364,8.904c0,6.883-2.911,9.054-6.364,9.054
		c-3.43,0-6.314-2.171-6.314-9.054C135.283,263.311,138.168,261.141,141.598,261.141z M141.598,276.212
		c2.861,0,2.861-4.218,2.861-6.167c0-1.801,0-6.019-2.861-6.019c-2.837,0-2.813,4.218-2.813,6.019
		C138.785,271.994,138.785,276.212,141.598,276.212z"/>
	<path fill="#555555" d="M154.523,261.141c3.059,0,4.045,2.269,4.045,4.982c0,2.688-1.282,4.638-4.169,4.638
		c-3.033,0-4.07-2.022-4.07-4.736C150.329,263.336,151.637,261.141,154.523,261.141z M154.424,268.91
		c1.53,0,1.628-1.775,1.628-2.812c0-0.987-0.073-3.108-1.528-3.108c-1.579,0-1.678,1.949-1.678,3.084
		C152.846,267.135,152.846,268.91,154.424,268.91z M164.957,260.943h2.097l-10.162,18.353h-2.146L164.957,260.943z M167.252,269.479
		c3.059,0,4.046,2.17,4.046,4.859c0,2.664-1.283,4.761-4.169,4.761c-3.035,0-4.07-2.171-4.07-4.86
		C163.059,271.574,164.366,269.479,167.252,269.479z M167.153,277.248c1.528,0,1.628-1.924,1.628-2.96
		c0-0.962-0.074-2.96-1.529-2.96c-1.579,0-1.678,1.801-1.678,2.936C165.574,275.324,165.574,277.248,167.153,277.248z"/>
	<path fill="#555555" d="M184.348,272.906c0,2.344,1.825,3.257,3.897,3.257c1.356,0,3.429-0.396,3.429-2.195
		c0-1.925-2.664-2.196-5.229-2.911c-2.615-0.641-5.255-1.752-5.255-5.008c0-3.626,3.404-5.328,6.587-5.328
		c3.676,0,7.055,1.604,7.055,5.674h-3.749c-0.123-2.097-1.604-2.664-3.479-2.664c-1.233,0-2.664,0.518-2.664,1.998
		c0,1.356,0.839,1.555,5.255,2.664c1.307,0.296,5.229,1.159,5.229,5.131c0,3.231-2.516,5.648-7.326,5.648
		c-3.897,0-7.572-1.924-7.499-6.266H184.348z"/>
	<path fill="#555555" d="M197.199,269.922c0.197-3.256,3.133-4.268,5.994-4.268c2.541,0,5.6,0.567,5.6,3.627v6.635
		c0,1.16,0.123,2.318,0.444,2.837h-3.553c-0.123-0.395-0.222-0.813-0.246-1.233c-1.11,1.159-2.714,1.579-4.292,1.579
		c-2.442,0-4.342-1.209-4.342-3.823c0.049-5.797,8.634-2.689,8.485-5.551c0-1.48-1.035-1.727-2.269-1.727
		c-1.357,0-2.196,0.543-2.319,1.924H197.199z M205.29,272.512c-0.592,0.518-1.825,0.543-2.911,0.74
		c-1.085,0.197-2.071,0.592-2.071,1.875s1.012,1.628,2.146,1.628c2.737,0,2.836-2.146,2.836-2.936V272.512z"/>
	<path fill="#555555" d="M215.946,266h2.565v2.343h-2.565v6.315c0,1.184,0.296,1.48,1.48,1.48c0.395,0,0.765-0.025,1.085-0.1v2.738
		c-0.593,0.099-1.357,0.124-2.048,0.124c-2.17,0-4.021-0.47-4.021-3.034v-7.524h-2.121V266h2.121v-3.824h3.503V266z"/>
	<path fill="#555555" d="M223.791,264.026h-3.504v-2.886h3.504V264.026z M220.287,266h3.504v12.753h-3.504V266z"/>
	<path fill="#555555" d="M229.267,274.609c0,1.504,1.332,2.146,2.688,2.146c0.987,0,2.295-0.395,2.295-1.628
		c0-1.061-1.48-1.455-3.972-1.974c-2.048-0.469-4.046-1.135-4.046-3.403c0-3.257,2.812-4.096,5.55-4.096
		c2.763,0,5.354,0.938,5.625,4.07h-3.33c-0.1-1.357-1.135-1.727-2.393-1.727c-0.79,0-1.949,0.123-1.949,1.184
		c0,1.258,1.998,1.432,3.972,1.899c2.047,0.469,4.045,1.208,4.045,3.577c0,3.354-2.935,4.44-5.821,4.44
		c-2.96,0-5.871-1.11-5.994-4.489H229.267z"/>
	<path fill="#555555" d="M240.564,268.343h-2.097V266h2.097v-0.986c0-2.27,1.406-3.873,4.268-3.873c0.616,0,1.259,0.073,1.851,0.098
		v2.615c-0.42-0.049-0.864-0.074-1.283-0.074c-0.962,0-1.332,0.395-1.332,1.455V266h2.418v2.343h-2.418v10.41h-3.503V268.343z"/>
	<path fill="#555555" d="M247.866,269.922c0.197-3.256,3.133-4.268,5.994-4.268c2.541,0,5.6,0.567,5.6,3.627v6.635
		c0,1.16,0.123,2.318,0.444,2.837h-3.552c-0.124-0.395-0.223-0.813-0.247-1.233c-1.11,1.159-2.714,1.579-4.292,1.579
		c-2.442,0-4.342-1.209-4.342-3.823c0.049-5.797,8.634-2.689,8.485-5.551c0-1.48-1.035-1.727-2.269-1.727
		c-1.357,0-2.196,0.543-2.319,1.924H247.866z M255.957,272.512c-0.592,0.518-1.825,0.543-2.911,0.74
		c-1.084,0.197-2.071,0.592-2.071,1.875s1.012,1.628,2.146,1.628c2.737,0,2.836-2.146,2.836-2.936V272.512z"/>
	<path fill="#555555" d="M270.857,270.489c-0.222-1.455-1.086-2.195-2.59-2.195c-2.246,0-2.986,2.269-2.986,4.144
		c0,1.851,0.716,4.021,2.911,4.021c1.653,0,2.565-1.012,2.788-2.59h3.379c-0.469,3.379-2.763,5.229-6.142,5.229
		c-3.849,0-6.438-2.714-6.438-6.538c0-3.971,2.368-6.906,6.513-6.906c3.009,0,5.797,1.578,5.994,4.835H270.857z"/>
	<path fill="#555555" d="M280.772,266h2.565v2.343h-2.565v6.315c0,1.184,0.297,1.48,1.48,1.48c0.395,0,0.765-0.025,1.085-0.1v2.738
		c-0.592,0.099-1.356,0.124-2.047,0.124c-2.171,0-4.021-0.47-4.021-3.034v-7.524h-2.121V266h2.121v-3.824h3.503V266z"/>
	<path fill="#555555" d="M288.617,264.026h-3.503v-2.886h3.503V264.026z M285.114,266h3.503v12.753h-3.503V266z"/>
	<path fill="#555555" d="M297.571,265.654c4.021,0,6.611,2.664,6.611,6.734c0,4.045-2.59,6.71-6.611,6.71
		c-3.996,0-6.586-2.665-6.586-6.71C290.985,268.318,293.575,265.654,297.571,265.654z M297.571,276.459
		c2.393,0,3.108-2.023,3.108-4.07s-0.716-4.095-3.108-4.095c-2.368,0-3.083,2.048-3.083,4.095S295.203,276.459,297.571,276.459z"/>
	<path fill="#555555" d="M306.452,266h3.331v1.775h0.073c0.889-1.455,2.417-2.121,3.897-2.121c3.726,0,4.662,2.097,4.662,5.254
		v7.845h-3.502v-7.203c0-2.097-0.593-3.133-2.245-3.133c-1.899,0-2.713,1.062-2.713,3.651v6.685h-3.504V266z"/>
	<path fill="#555555" d="M121.764,302.594c-1.382,1.775-3.133,2.417-4.835,2.417c-5.427,0-8.658-4.069-8.658-9.151
		c0-5.23,3.231-9.301,8.658-9.301c3.602,0,7.03,2.196,7.425,6.217h-3.699c-0.47-1.974-1.875-2.96-3.726-2.96
		c-3.479,0-4.786,2.96-4.786,6.044c0,2.936,1.308,5.896,4.786,5.896c2.541,0,3.972-1.333,4.193-3.8h-3.897v-2.885h7.401v9.521
		h-2.468L121.764,302.594z"/>
	<path fill="#555555" d="M139.352,304.592h-3.33v-1.776h-0.074c-0.888,1.455-2.417,2.122-3.897,2.122
		c-3.724,0-4.661-2.098-4.661-5.256v-7.844h3.502v7.203c0,2.097,0.593,3.133,2.245,3.133c1.899,0,2.714-1.061,2.714-3.65v-6.686
		h3.502V304.592z"/>
	<path fill="#555555" d="M141.868,295.76c0.197-3.256,3.133-4.268,5.994-4.268c2.541,0,5.6,0.568,5.6,3.627v6.636
		c0,1.159,0.123,2.318,0.444,2.837h-3.553c-0.123-0.395-0.222-0.814-0.246-1.233c-1.11,1.159-2.714,1.579-4.293,1.579
		c-2.441,0-4.341-1.209-4.341-3.824c0.049-5.797,8.634-2.688,8.485-5.551c0-1.479-1.036-1.727-2.27-1.727
		c-1.356,0-2.195,0.543-2.318,1.924H141.868z M149.959,298.35c-0.592,0.52-1.825,0.543-2.911,0.74
		c-1.085,0.197-2.071,0.592-2.071,1.875s1.011,1.629,2.146,1.629c2.738,0,2.837-2.146,2.837-2.936V298.35z"/>
	<path fill="#555555" d="M156.176,291.838h3.33v2.369h0.049c0.666-1.604,2.319-2.715,4.071-2.715c0.271,0,0.518,0.05,0.764,0.123
		v3.258c-0.32-0.074-0.839-0.124-1.258-0.124c-2.59,0-3.453,1.825-3.453,4.095v5.748h-3.503V291.838z"/>
	<path fill="#555555" d="M165.623,295.76c0.197-3.256,3.133-4.268,5.994-4.268c2.54,0,5.6,0.568,5.6,3.627v6.636
		c0,1.159,0.123,2.318,0.444,2.837h-3.553c-0.123-0.395-0.222-0.814-0.246-1.233c-1.11,1.159-2.714,1.579-4.293,1.579
		c-2.441,0-4.341-1.209-4.341-3.824c0.049-5.797,8.634-2.688,8.485-5.551c0-1.479-1.036-1.727-2.27-1.727
		c-1.356,0-2.195,0.543-2.318,1.924H165.623z M173.714,298.35c-0.592,0.52-1.825,0.543-2.911,0.74
		c-1.085,0.197-2.071,0.592-2.071,1.875s1.011,1.629,2.146,1.629c2.738,0,2.837-2.146,2.837-2.936V298.35z"/>
	<path fill="#555555" d="M179.931,291.838h3.33v1.776h0.074c0.887-1.456,2.417-2.122,3.897-2.122c3.725,0,4.661,2.098,4.661,5.254
		v7.846h-3.502v-7.203c0-2.098-0.592-3.133-2.245-3.133c-1.899,0-2.714,1.061-2.714,3.65v6.686h-3.502V291.838z"/>
	<path fill="#555555" d="M198.998,291.838h2.565v2.344h-2.565v6.314c0,1.184,0.297,1.48,1.48,1.48c0.395,0,0.765-0.024,1.085-0.099
		v2.737c-0.592,0.1-1.356,0.125-2.047,0.125c-2.171,0-4.021-0.47-4.021-3.035v-7.523h-2.121v-2.344h2.121v-3.823h3.503V291.838z"/>
	<path fill="#555555" d="M206.127,299.066c0.1,2.244,1.16,3.23,3.133,3.23c1.406,0,2.541-0.863,2.763-1.652h3.084
		c-0.986,3.033-3.084,4.293-5.969,4.293c-4.021,0-6.513-2.764-6.513-6.711c0-3.822,2.639-6.734,6.513-6.734
		c4.341,0,6.462,3.651,6.191,7.574H206.127z M211.825,296.846c-0.319-1.775-1.085-2.713-2.787-2.713
		c-2.269,0-2.836,1.727-2.911,2.713H211.825z"/>
	<path fill="#555555" d="M220.286,299.066c0.099,2.244,1.159,3.23,3.133,3.23c1.406,0,2.541-0.863,2.763-1.652h3.084
		c-0.987,3.033-3.084,4.293-5.97,4.293c-4.021,0-6.512-2.764-6.512-6.711c0-3.822,2.639-6.734,6.512-6.734
		c4.342,0,6.463,3.651,6.191,7.574H220.286z M225.984,296.846c-0.32-1.775-1.085-2.713-2.787-2.713c-2.27,0-2.837,1.727-2.911,2.713
		H225.984z"/>
	<path fill="#555555" d="M240.662,302.963h-0.049c-0.815,1.382-2.221,1.975-3.873,1.975c-3.849,0-5.724-3.281-5.724-6.834
		c0-3.428,1.9-6.611,5.649-6.611c1.505,0,2.985,0.643,3.774,1.9h0.049v-6.414h3.503v17.613h-3.33V302.963z M237.603,294.133
		c-2.293,0-3.082,1.998-3.082,4.07c0,1.998,0.912,4.094,3.082,4.094c2.295,0,3.011-2.022,3.011-4.119
		C240.613,296.105,239.873,294.133,237.603,294.133z"/>
	<path fill="#555555" d="M246.805,300.793h3.872v3.799h-3.872V300.793z M250.554,291.715l-0.962,7.598h-1.752l-0.938-7.598v-4.736
		h3.651V291.715z"/>
</g>
<g>
	<linearGradient id="SVGID_6_" gradientUnits="userSpaceOnUse" x1="9.5791" y1="33" x2="72.4482" y2="33">
		<stop  offset="0" style="stop-color:#FFFFFF"/>
		<stop  offset="0.6233" style="stop-color:#F1F1F1"/>
		<stop  offset="1" style="stop-color:#E6E6E6"/>
	</linearGradient>
	<polygon fill-rule="evenodd" clip-rule="evenodd" fill="url(#SVGID_6_)" points="9.579,12.996 72.448,12.996 72.448,53.004 
		9.579,53.004 9.579,12.996 	"/>
	<path fill-rule="evenodd" clip-rule="evenodd" fill="#FF0000" d="M9.579,49.927h62.869v3.077H9.579V49.927L9.579,49.927z
		 M9.579,12.996h62.869v3.076H9.579V12.996L9.579,12.996z M9.579,19.151h62.869v3.076H9.579V19.151L9.579,19.151z M9.579,25.306
		h62.869v3.078H9.579V25.306L9.579,25.306z M9.579,31.462h62.869v3.076H9.579V31.462L9.579,31.462z M9.579,37.616h62.869v3.077
		H9.579V37.616L9.579,37.616z M9.579,43.771h62.869v3.077H9.579V43.771L9.579,43.771z"/>
	<polygon fill-rule="evenodd" clip-rule="evenodd" fill="#00409E" points="9.579,12.996 39.263,12.996 39.263,34.538 9.579,34.538 
		9.579,12.996 	"/>
	<path fill-rule="evenodd" clip-rule="evenodd" fill="#FFFFFF" d="M21.95,14.508c0.061,0.19,0.123,0.382,0.184,0.573
		c0.201,0,0.402-0.001,0.604-0.002c-0.164,0.119-0.326,0.236-0.488,0.354c0.063,0.191,0.125,0.382,0.188,0.572
		c-0.164-0.117-0.324-0.236-0.486-0.354c-0.162,0.118-0.326,0.237-0.486,0.354c0.061-0.19,0.123-0.381,0.186-0.572
		c-0.162-0.117-0.324-0.234-0.488-0.354c0.201,0.001,0.402,0.002,0.604,0.002C21.825,14.89,21.888,14.698,21.95,14.508L21.95,14.508
		z M19.478,29.362c0.063,0.191,0.123,0.383,0.186,0.574c0.201,0,0.4-0.001,0.602-0.002c-0.162,0.118-0.326,0.236-0.488,0.354
		c0.063,0.191,0.125,0.382,0.188,0.572c-0.162-0.118-0.324-0.236-0.486-0.355c-0.162,0.119-0.324,0.237-0.486,0.355
		c0.063-0.19,0.125-0.381,0.188-0.572c-0.162-0.117-0.326-0.235-0.488-0.354c0.201,0.001,0.402,0.002,0.602,0.002
		C19.354,29.745,19.417,29.554,19.478,29.362L19.478,29.362z M14.534,29.362l0.186,0.574l0.602-0.002l-0.488,0.354l0.188,0.572
		l-0.486-0.355l-0.486,0.355l0.188-0.572l-0.488-0.354l0.602,0.002L14.534,29.362L14.534,29.362z M34.308,29.362l0.186,0.574
		l0.602-0.002l-0.488,0.354l0.188,0.572l-0.486-0.355l-0.486,0.355l0.188-0.572l-0.488-0.354l0.602,0.002L34.308,29.362
		L34.308,29.362z M29.364,29.362c0.061,0.191,0.123,0.383,0.186,0.574c0.199,0,0.4-0.001,0.602-0.002
		c-0.162,0.118-0.324,0.236-0.488,0.354c0.063,0.191,0.125,0.382,0.188,0.572c-0.162-0.118-0.324-0.236-0.486-0.355
		c-0.162,0.119-0.324,0.237-0.486,0.355c0.063-0.19,0.125-0.381,0.188-0.572c-0.164-0.117-0.326-0.235-0.488-0.354
		c0.201,0.001,0.4,0.002,0.602,0.002C29.241,29.745,29.302,29.554,29.364,29.362L29.364,29.362z M24.421,29.362
		c0.061,0.191,0.123,0.383,0.186,0.574c0.199,0,0.4-0.001,0.602-0.002c-0.162,0.118-0.324,0.236-0.488,0.354
		c0.063,0.191,0.125,0.382,0.188,0.572c-0.162-0.118-0.324-0.236-0.486-0.355c-0.162,0.119-0.324,0.237-0.486,0.355
		c0.063-0.19,0.125-0.381,0.188-0.572c-0.164-0.117-0.326-0.235-0.488-0.354c0.201,0.001,0.4,0.002,0.602,0.002
		C24.298,29.745,24.358,29.554,24.421,29.362L24.421,29.362z M19.478,25.119c0.063,0.19,0.123,0.382,0.186,0.573
		c0.201,0,0.4-0.001,0.602-0.002c-0.162,0.118-0.326,0.236-0.488,0.354c0.063,0.19,0.125,0.382,0.188,0.572
		c-0.162-0.118-0.324-0.236-0.486-0.354c-0.162,0.118-0.324,0.236-0.486,0.354c0.063-0.19,0.125-0.382,0.188-0.572
		c-0.162-0.117-0.326-0.235-0.488-0.354c0.201,0.001,0.402,0.002,0.602,0.002C19.354,25.501,19.417,25.31,19.478,25.119
		L19.478,25.119z M14.534,25.119c0.061,0.19,0.123,0.382,0.186,0.573c0.201,0,0.4-0.001,0.602-0.002
		c-0.162,0.118-0.324,0.236-0.488,0.354c0.063,0.19,0.125,0.382,0.188,0.572c-0.162-0.118-0.324-0.236-0.486-0.354
		c-0.162,0.118-0.324,0.236-0.486,0.354c0.063-0.19,0.125-0.382,0.188-0.572c-0.162-0.117-0.326-0.235-0.488-0.354
		c0.201,0.001,0.402,0.002,0.602,0.002C14.411,25.501,14.472,25.31,14.534,25.119L14.534,25.119z M34.308,25.119
		c0.061,0.19,0.123,0.382,0.186,0.573c0.199,0,0.4-0.001,0.602-0.002c-0.162,0.118-0.326,0.236-0.488,0.354
		c0.063,0.19,0.125,0.382,0.188,0.572c-0.162-0.118-0.324-0.236-0.486-0.354c-0.162,0.118-0.324,0.236-0.486,0.354
		c0.063-0.19,0.125-0.382,0.188-0.572c-0.164-0.117-0.326-0.235-0.488-0.354c0.201,0.001,0.4,0.002,0.602,0.002
		C34.185,25.501,34.245,25.31,34.308,25.119L34.308,25.119z M29.364,25.119c0.061,0.19,0.123,0.382,0.186,0.573
		c0.199,0,0.4-0.001,0.602-0.002c-0.162,0.118-0.324,0.236-0.488,0.354c0.063,0.19,0.125,0.382,0.188,0.572
		c-0.162-0.118-0.324-0.236-0.486-0.354c-0.162,0.118-0.324,0.236-0.486,0.354c0.063-0.19,0.125-0.382,0.188-0.572
		c-0.164-0.117-0.326-0.235-0.488-0.354c0.201,0.001,0.4,0.002,0.602,0.002C29.241,25.501,29.302,25.31,29.364,25.119L29.364,25.119
		z M24.421,25.119c0.061,0.19,0.123,0.382,0.186,0.573c0.199,0,0.4-0.001,0.602-0.002c-0.162,0.118-0.324,0.236-0.488,0.354
		c0.063,0.19,0.125,0.382,0.188,0.572c-0.162-0.118-0.324-0.236-0.486-0.354c-0.162,0.118-0.324,0.236-0.486,0.354
		c0.063-0.19,0.125-0.382,0.188-0.572c-0.164-0.117-0.326-0.235-0.488-0.354c0.201,0.001,0.4,0.002,0.602,0.002
		C24.298,25.501,24.358,25.31,24.421,25.119L24.421,25.119z M19.478,20.874c0.063,0.191,0.123,0.383,0.186,0.573
		c0.201,0,0.4-0.001,0.602-0.001c-0.162,0.117-0.326,0.235-0.488,0.354c0.063,0.19,0.125,0.381,0.188,0.572
		c-0.162-0.119-0.324-0.236-0.486-0.355c-0.162,0.119-0.324,0.236-0.486,0.355c0.063-0.191,0.125-0.382,0.188-0.572
		c-0.162-0.118-0.326-0.236-0.488-0.354c0.201,0,0.402,0.001,0.602,0.001C19.354,21.257,19.417,21.065,19.478,20.874L19.478,20.874z
		 M14.534,20.874c0.061,0.191,0.123,0.383,0.186,0.573c0.201,0,0.4-0.001,0.602-0.001c-0.162,0.117-0.324,0.235-0.488,0.354
		c0.063,0.19,0.125,0.381,0.188,0.572c-0.162-0.119-0.324-0.236-0.486-0.355c-0.162,0.119-0.324,0.236-0.486,0.355
		c0.063-0.191,0.125-0.382,0.188-0.572c-0.162-0.118-0.326-0.236-0.488-0.354c0.201,0,0.402,0.001,0.602,0.001
		C14.411,21.257,14.472,21.065,14.534,20.874L14.534,20.874z M34.308,20.874c0.061,0.191,0.123,0.383,0.186,0.573
		c0.199,0,0.4-0.001,0.602-0.001c-0.162,0.117-0.326,0.235-0.488,0.354c0.063,0.19,0.125,0.381,0.188,0.572
		c-0.162-0.119-0.324-0.236-0.486-0.355c-0.162,0.119-0.324,0.236-0.486,0.355c0.063-0.191,0.125-0.382,0.188-0.572
		c-0.164-0.118-0.326-0.236-0.488-0.354c0.201,0,0.4,0.001,0.602,0.001C34.185,21.257,34.245,21.065,34.308,20.874L34.308,20.874z
		 M29.364,20.874c0.061,0.191,0.123,0.383,0.186,0.573c0.199,0,0.4-0.001,0.602-0.001c-0.162,0.117-0.324,0.235-0.488,0.354
		c0.063,0.19,0.125,0.381,0.188,0.572c-0.162-0.119-0.324-0.236-0.486-0.355c-0.162,0.119-0.324,0.236-0.486,0.355
		c0.063-0.191,0.125-0.382,0.188-0.572c-0.164-0.118-0.326-0.236-0.488-0.354c0.201,0,0.4,0.001,0.602,0.001
		C29.241,21.257,29.302,21.065,29.364,20.874L29.364,20.874z M24.421,20.874c0.061,0.191,0.123,0.383,0.186,0.573
		c0.199,0,0.4-0.001,0.602-0.001c-0.162,0.117-0.324,0.235-0.488,0.354c0.063,0.19,0.125,0.381,0.188,0.572
		c-0.162-0.119-0.324-0.236-0.486-0.355c-0.162,0.119-0.324,0.236-0.486,0.355c0.063-0.191,0.125-0.382,0.188-0.572
		c-0.164-0.118-0.326-0.236-0.488-0.354c0.201,0,0.4,0.001,0.602,0.001C24.298,21.257,24.358,21.065,24.421,20.874L24.421,20.874z
		 M19.478,16.63c0.063,0.191,0.123,0.383,0.186,0.573c0.201,0,0.4-0.001,0.602-0.001c-0.162,0.117-0.326,0.235-0.488,0.353
		c0.063,0.191,0.125,0.382,0.188,0.573c-0.162-0.119-0.324-0.236-0.486-0.355c-0.162,0.119-0.324,0.236-0.486,0.355
		c0.063-0.191,0.125-0.382,0.188-0.573c-0.162-0.117-0.326-0.235-0.488-0.353c0.201,0,0.402,0.001,0.602,0.001
		C19.354,17.013,19.417,16.821,19.478,16.63L19.478,16.63z M14.534,16.63l0.186,0.573l0.602-0.001l-0.488,0.353l0.188,0.573
		l-0.486-0.355l-0.486,0.355l0.188-0.573l-0.488-0.353l0.602,0.001L14.534,16.63L14.534,16.63z M34.308,16.63l0.186,0.573
		l0.602-0.001l-0.488,0.353l0.188,0.573l-0.486-0.355l-0.486,0.355l0.188-0.573l-0.488-0.353l0.602,0.001L34.308,16.63L34.308,16.63
		z M29.364,16.63c0.061,0.191,0.123,0.383,0.186,0.573c0.199,0,0.4-0.001,0.602-0.001c-0.162,0.117-0.324,0.235-0.488,0.353
		c0.063,0.191,0.125,0.382,0.188,0.573c-0.162-0.119-0.324-0.236-0.486-0.355c-0.162,0.119-0.324,0.236-0.486,0.355
		c0.063-0.191,0.125-0.382,0.188-0.573c-0.164-0.117-0.326-0.235-0.488-0.353c0.201,0,0.4,0.001,0.602,0.001
		C29.241,17.013,29.302,16.821,29.364,16.63L29.364,16.63z M24.421,16.63c0.061,0.191,0.123,0.383,0.186,0.573
		c0.199,0,0.4-0.001,0.602-0.001c-0.162,0.117-0.324,0.235-0.488,0.353c0.063,0.191,0.125,0.382,0.188,0.573
		c-0.162-0.119-0.324-0.236-0.486-0.355c-0.162,0.119-0.324,0.236-0.486,0.355c0.063-0.191,0.125-0.382,0.188-0.573
		c-0.164-0.117-0.326-0.235-0.488-0.353c0.201,0,0.4,0.001,0.602,0.001C24.298,17.013,24.358,16.821,24.421,16.63L24.421,16.63z
		 M21.95,27.241c0.061,0.191,0.123,0.382,0.184,0.572c0.201,0,0.402,0,0.604-0.001c-0.164,0.118-0.326,0.235-0.488,0.354
		c0.063,0.19,0.125,0.382,0.188,0.573c-0.164-0.119-0.324-0.237-0.486-0.355c-0.162,0.118-0.326,0.236-0.486,0.355
		c0.061-0.191,0.123-0.383,0.186-0.573c-0.162-0.118-0.324-0.235-0.488-0.354c0.201,0.001,0.402,0.001,0.604,0.001
		C21.825,27.623,21.888,27.433,21.95,27.241L21.95,27.241z M12.063,27.241c0.061,0.191,0.123,0.382,0.184,0.572
		c0.201,0,0.402,0,0.604-0.001c-0.164,0.118-0.326,0.235-0.488,0.354c0.063,0.19,0.125,0.382,0.188,0.573
		c-0.162-0.119-0.326-0.237-0.486-0.355c-0.162,0.118-0.324,0.236-0.488,0.355c0.063-0.191,0.127-0.383,0.188-0.573
		c-0.162-0.118-0.324-0.235-0.486-0.354c0.199,0.001,0.4,0.001,0.602,0.001C11.938,27.623,12.001,27.433,12.063,27.241
		L12.063,27.241z M31.835,27.241c0.063,0.191,0.125,0.382,0.186,0.572c0.201,0,0.402,0,0.602-0.001
		c-0.162,0.118-0.324,0.235-0.486,0.354c0.063,0.19,0.123,0.382,0.188,0.573c-0.162-0.119-0.324-0.237-0.488-0.355
		c-0.162,0.118-0.324,0.236-0.486,0.355c0.063-0.191,0.125-0.383,0.188-0.573c-0.162-0.118-0.324-0.235-0.488-0.354
		c0.201,0.001,0.402,0.001,0.604,0.001C31.712,27.623,31.774,27.433,31.835,27.241L31.835,27.241z M36.778,27.241
		c0.063,0.191,0.125,0.382,0.186,0.572c0.201,0,0.402,0,0.604-0.001c-0.164,0.118-0.326,0.235-0.488,0.354
		c0.063,0.19,0.125,0.382,0.188,0.573c-0.164-0.119-0.326-0.237-0.488-0.355c-0.162,0.118-0.324,0.236-0.486,0.355
		c0.063-0.191,0.125-0.383,0.188-0.573c-0.162-0.118-0.326-0.235-0.488-0.354c0.201,0.001,0.402,0.001,0.604,0.001
		C36.655,27.623,36.718,27.433,36.778,27.241L36.778,27.241z M26.892,27.241c0.063,0.191,0.125,0.382,0.186,0.572
		c0.201,0,0.402,0,0.604-0.001c-0.164,0.118-0.326,0.235-0.488,0.354c0.063,0.19,0.125,0.382,0.188,0.573
		c-0.162-0.119-0.324-0.237-0.488-0.355c-0.16,0.118-0.324,0.236-0.486,0.355c0.063-0.191,0.125-0.383,0.188-0.573
		c-0.162-0.118-0.324-0.235-0.488-0.354c0.201,0.001,0.402,0.001,0.604,0.001C26.769,27.623,26.831,27.433,26.892,27.241
		L26.892,27.241z M17.007,27.241c0.061,0.191,0.123,0.382,0.184,0.572c0.201,0,0.402,0,0.604-0.001
		c-0.164,0.118-0.326,0.235-0.488,0.354c0.063,0.19,0.125,0.382,0.188,0.573c-0.162-0.119-0.324-0.237-0.486-0.355
		c-0.162,0.118-0.326,0.236-0.486,0.355c0.061-0.191,0.123-0.383,0.186-0.573c-0.162-0.118-0.324-0.235-0.486-0.354
		c0.199,0.001,0.4,0.001,0.602,0.001C16.882,27.623,16.944,27.433,17.007,27.241L17.007,27.241z M21.95,31.485
		c0.061,0.191,0.123,0.383,0.184,0.573c0.201-0.001,0.402-0.001,0.604-0.001c-0.164,0.117-0.326,0.235-0.488,0.354
		c0.063,0.189,0.125,0.381,0.188,0.572c-0.164-0.119-0.324-0.236-0.486-0.355c-0.162,0.119-0.326,0.236-0.486,0.355
		c0.061-0.191,0.123-0.383,0.186-0.572c-0.162-0.118-0.324-0.236-0.488-0.354c0.201,0,0.402,0,0.604,0.001
		C21.825,31.868,21.888,31.677,21.95,31.485L21.95,31.485z M12.063,31.485l0.184,0.573l0.604-0.001l-0.488,0.354l0.188,0.572
		l-0.486-0.355l-0.488,0.355l0.188-0.572l-0.486-0.354l0.602,0.001L12.063,31.485L12.063,31.485z M31.835,31.485
		c0.063,0.191,0.125,0.383,0.186,0.573c0.201-0.001,0.402-0.001,0.602-0.001c-0.162,0.117-0.324,0.235-0.486,0.354
		c0.063,0.189,0.123,0.381,0.188,0.572c-0.162-0.119-0.324-0.236-0.488-0.355c-0.162,0.119-0.324,0.236-0.486,0.355
		c0.063-0.191,0.125-0.383,0.188-0.572c-0.162-0.118-0.324-0.236-0.488-0.354c0.201,0,0.402,0,0.604,0.001
		C31.712,31.868,31.774,31.677,31.835,31.485L31.835,31.485z M36.778,31.485l0.186,0.573l0.604-0.001l-0.488,0.354l0.188,0.572
		l-0.488-0.355l-0.486,0.355l0.188-0.572l-0.488-0.354l0.604,0.001L36.778,31.485L36.778,31.485z M26.892,31.485
		c0.063,0.191,0.125,0.383,0.186,0.573c0.201-0.001,0.402-0.001,0.604-0.001c-0.164,0.117-0.326,0.235-0.488,0.354
		c0.063,0.189,0.125,0.381,0.188,0.572c-0.162-0.119-0.324-0.236-0.488-0.355c-0.16,0.119-0.324,0.236-0.486,0.355
		c0.063-0.191,0.125-0.383,0.188-0.572c-0.162-0.118-0.324-0.236-0.488-0.354c0.201,0,0.402,0,0.604,0.001
		C26.769,31.868,26.831,31.677,26.892,31.485L26.892,31.485z M17.007,31.485c0.061,0.191,0.123,0.383,0.184,0.573
		c0.201-0.001,0.402-0.001,0.604-0.001c-0.164,0.117-0.326,0.235-0.488,0.354c0.063,0.189,0.125,0.381,0.188,0.572
		c-0.162-0.119-0.324-0.236-0.486-0.355c-0.162,0.119-0.326,0.236-0.486,0.355c0.061-0.191,0.123-0.383,0.186-0.572
		c-0.162-0.118-0.324-0.236-0.486-0.354c0.199,0,0.4,0,0.602,0.001C16.882,31.868,16.944,31.677,17.007,31.485L17.007,31.485z
		 M21.95,18.752c0.061,0.19,0.123,0.382,0.184,0.573c0.201,0,0.402,0,0.604-0.001c-0.164,0.118-0.326,0.235-0.488,0.353
		c0.063,0.191,0.125,0.383,0.188,0.573c-0.164-0.118-0.324-0.237-0.486-0.355c-0.162,0.118-0.326,0.237-0.486,0.355
		c0.061-0.19,0.123-0.382,0.186-0.573c-0.162-0.117-0.324-0.234-0.488-0.353c0.201,0.001,0.402,0.001,0.604,0.001
		C21.825,19.134,21.888,18.942,21.95,18.752L21.95,18.752z M21.95,22.997c0.061,0.191,0.123,0.382,0.184,0.573
		c0.201-0.001,0.402-0.001,0.604-0.002c-0.164,0.118-0.326,0.235-0.488,0.354c0.063,0.19,0.125,0.382,0.188,0.572
		c-0.164-0.118-0.324-0.237-0.486-0.354c-0.162,0.117-0.326,0.236-0.486,0.354c0.061-0.19,0.123-0.382,0.186-0.572
		c-0.162-0.118-0.324-0.235-0.488-0.354c0.201,0.001,0.402,0.001,0.604,0.002C21.825,23.379,21.888,23.188,21.95,22.997
		L21.95,22.997z M12.063,22.997c0.061,0.191,0.123,0.382,0.184,0.573c0.201-0.001,0.402-0.001,0.604-0.002
		c-0.164,0.118-0.326,0.235-0.488,0.354c0.063,0.19,0.125,0.382,0.188,0.572c-0.162-0.118-0.326-0.237-0.486-0.354
		c-0.162,0.117-0.324,0.236-0.488,0.354c0.063-0.19,0.127-0.382,0.188-0.572c-0.162-0.118-0.324-0.235-0.486-0.354
		c0.199,0.001,0.4,0.001,0.602,0.002C11.938,23.379,12.001,23.188,12.063,22.997L12.063,22.997z M31.835,22.997
		c0.063,0.191,0.125,0.382,0.186,0.573c0.201-0.001,0.402-0.001,0.602-0.002c-0.162,0.118-0.324,0.235-0.486,0.354
		c0.063,0.19,0.123,0.382,0.188,0.572c-0.162-0.118-0.324-0.237-0.488-0.354c-0.162,0.117-0.324,0.236-0.486,0.354
		c0.063-0.19,0.125-0.382,0.188-0.572c-0.162-0.118-0.324-0.235-0.488-0.354c0.201,0.001,0.402,0.001,0.604,0.002
		C31.712,23.379,31.774,23.188,31.835,22.997L31.835,22.997z M36.778,22.997c0.063,0.191,0.125,0.382,0.186,0.573
		c0.201-0.001,0.402-0.001,0.604-0.002c-0.164,0.118-0.326,0.235-0.488,0.354c0.063,0.19,0.125,0.382,0.188,0.572
		c-0.164-0.118-0.326-0.237-0.488-0.354c-0.162,0.117-0.324,0.236-0.486,0.354c0.063-0.19,0.125-0.382,0.188-0.572
		c-0.162-0.118-0.326-0.235-0.488-0.354c0.201,0.001,0.402,0.001,0.604,0.002C36.655,23.379,36.718,23.188,36.778,22.997
		L36.778,22.997z M26.892,22.997c0.063,0.191,0.125,0.382,0.186,0.573c0.201-0.001,0.402-0.001,0.604-0.002
		c-0.164,0.118-0.326,0.235-0.488,0.354c0.063,0.19,0.125,0.382,0.188,0.572c-0.162-0.118-0.324-0.237-0.488-0.354
		c-0.16,0.117-0.324,0.236-0.486,0.354c0.063-0.19,0.125-0.382,0.188-0.572c-0.162-0.118-0.324-0.235-0.488-0.354
		c0.201,0.001,0.402,0.001,0.604,0.002C26.769,23.379,26.831,23.188,26.892,22.997L26.892,22.997z M17.007,22.997
		c0.061,0.191,0.123,0.382,0.184,0.573c0.201-0.001,0.402-0.001,0.604-0.002c-0.164,0.118-0.326,0.235-0.488,0.354
		c0.063,0.19,0.125,0.382,0.188,0.572c-0.162-0.118-0.324-0.237-0.486-0.354c-0.162,0.117-0.326,0.236-0.486,0.354
		c0.061-0.19,0.123-0.382,0.186-0.572c-0.162-0.118-0.324-0.235-0.486-0.354c0.199,0.001,0.4,0.001,0.602,0.002
		C16.882,23.379,16.944,23.188,17.007,22.997L17.007,22.997z M12.063,18.752c0.061,0.19,0.123,0.382,0.184,0.573
		c0.201,0,0.402,0,0.604-0.001c-0.164,0.118-0.326,0.235-0.488,0.353c0.063,0.191,0.125,0.383,0.188,0.573
		c-0.162-0.118-0.326-0.237-0.486-0.355c-0.162,0.118-0.324,0.237-0.488,0.355c0.063-0.19,0.127-0.382,0.188-0.573
		c-0.162-0.117-0.324-0.234-0.486-0.353c0.199,0.001,0.4,0.001,0.602,0.001C11.938,19.134,12.001,18.942,12.063,18.752
		L12.063,18.752z M31.835,18.752c0.063,0.19,0.125,0.382,0.186,0.573c0.201,0,0.402,0,0.602-0.001
		c-0.162,0.118-0.324,0.235-0.486,0.353c0.063,0.191,0.123,0.383,0.188,0.573c-0.162-0.118-0.324-0.237-0.488-0.355
		c-0.162,0.118-0.324,0.237-0.486,0.355c0.063-0.19,0.125-0.382,0.188-0.573c-0.162-0.117-0.324-0.234-0.488-0.353
		c0.201,0.001,0.402,0.001,0.604,0.001C31.712,19.134,31.774,18.942,31.835,18.752L31.835,18.752z M36.778,18.752
		c0.063,0.19,0.125,0.382,0.186,0.573c0.201,0,0.402,0,0.604-0.001c-0.164,0.118-0.326,0.235-0.488,0.353
		c0.063,0.191,0.125,0.383,0.188,0.573c-0.164-0.118-0.326-0.237-0.488-0.355c-0.162,0.118-0.324,0.237-0.486,0.355
		c0.063-0.19,0.125-0.382,0.188-0.573c-0.162-0.117-0.326-0.234-0.488-0.353c0.201,0.001,0.402,0.001,0.604,0.001
		C36.655,19.134,36.718,18.942,36.778,18.752L36.778,18.752z M26.892,18.752c0.063,0.19,0.125,0.382,0.186,0.573
		c0.201,0,0.402,0,0.604-0.001c-0.164,0.118-0.326,0.235-0.488,0.353c0.063,0.191,0.125,0.383,0.188,0.573
		c-0.162-0.118-0.324-0.237-0.488-0.355c-0.16,0.118-0.324,0.237-0.486,0.355c0.063-0.19,0.125-0.382,0.188-0.573
		c-0.162-0.117-0.324-0.234-0.488-0.353c0.201,0.001,0.402,0.001,0.604,0.001C26.769,19.134,26.831,18.942,26.892,18.752
		L26.892,18.752z M17.007,18.752c0.061,0.19,0.123,0.382,0.184,0.573c0.201,0,0.402,0,0.604-0.001
		c-0.164,0.118-0.326,0.235-0.488,0.353c0.063,0.191,0.125,0.383,0.188,0.573c-0.162-0.118-0.324-0.237-0.486-0.355
		c-0.162,0.118-0.326,0.237-0.486,0.355c0.061-0.19,0.123-0.382,0.186-0.573c-0.162-0.117-0.324-0.234-0.486-0.353
		c0.199,0.001,0.4,0.001,0.602,0.001C16.882,19.134,16.944,18.942,17.007,18.752L17.007,18.752z M12.063,14.508l0.184,0.573
		l0.604-0.002l-0.488,0.354l0.188,0.572l-0.486-0.354l-0.488,0.354l0.188-0.572l-0.486-0.354l0.602,0.002L12.063,14.508
		L12.063,14.508z M31.835,14.508c0.063,0.19,0.125,0.382,0.186,0.573c0.201,0,0.402-0.001,0.602-0.002
		c-0.162,0.119-0.324,0.236-0.486,0.354c0.063,0.191,0.123,0.382,0.188,0.572c-0.162-0.117-0.324-0.236-0.488-0.354
		c-0.162,0.118-0.324,0.237-0.486,0.354c0.063-0.19,0.125-0.381,0.188-0.572c-0.162-0.117-0.324-0.234-0.488-0.354
		c0.201,0.001,0.402,0.002,0.604,0.002C31.712,14.89,31.774,14.698,31.835,14.508L31.835,14.508z M36.778,14.508l0.186,0.573
		l0.604-0.002l-0.488,0.354l0.188,0.572l-0.488-0.354l-0.486,0.354l0.188-0.572l-0.488-0.354l0.604,0.002L36.778,14.508
		L36.778,14.508z M26.892,14.508c0.063,0.19,0.125,0.382,0.186,0.573c0.201,0,0.402-0.001,0.604-0.002
		c-0.164,0.119-0.326,0.236-0.488,0.354c0.063,0.191,0.125,0.382,0.188,0.572c-0.162-0.117-0.324-0.236-0.488-0.354
		c-0.16,0.118-0.324,0.237-0.486,0.354c0.063-0.19,0.125-0.381,0.188-0.572c-0.162-0.117-0.324-0.234-0.488-0.354
		c0.201,0.001,0.402,0.002,0.604,0.002C26.769,14.89,26.831,14.698,26.892,14.508L26.892,14.508z M17.007,14.508
		c0.061,0.19,0.123,0.382,0.184,0.573c0.201,0,0.402-0.001,0.604-0.002c-0.164,0.119-0.326,0.236-0.488,0.354
		c0.063,0.191,0.125,0.382,0.188,0.572c-0.162-0.117-0.324-0.236-0.486-0.354c-0.162,0.118-0.326,0.237-0.486,0.354
		c0.061-0.19,0.123-0.381,0.186-0.572c-0.162-0.117-0.324-0.234-0.486-0.354c0.199,0.001,0.4,0.002,0.602,0.002
		C16.882,14.89,16.944,14.698,17.007,14.508L17.007,14.508z"/>
	<g>
		<path opacity="0" fill-rule="evenodd" clip-rule="evenodd" d="M9.579,3.297v59.406c2.646-3.971,4.793-13.299,4.793-29.704
			C14.372,16.595,12.226,7.267,9.579,3.297L9.579,3.297z"/>
		<path opacity="0.0375" fill-rule="evenodd" clip-rule="evenodd" d="M9.579,3.297v59.406c2.393-3.616,4.332-13.299,4.332-29.704
			C13.911,16.595,11.972,6.911,9.579,3.297L9.579,3.297z"/>
		<path opacity="0.075" fill-rule="evenodd" clip-rule="evenodd" d="M9.579,3.297v59.406c2.139-3.262,3.873-13.299,3.873-29.704
			C13.452,16.595,11.718,6.558,9.579,3.297L9.579,3.297z"/>
		<path opacity="0.1125" fill-rule="evenodd" clip-rule="evenodd" d="M9.579,3.297v59.406c1.885-2.907,3.414-13.299,3.414-29.704
			C12.993,16.595,11.464,6.202,9.579,3.297L9.579,3.297z"/>
		<path opacity="0.15" fill-rule="evenodd" clip-rule="evenodd" d="M9.579,3.297v59.406c1.631-2.553,2.953-13.299,2.953-29.704
			C12.532,16.595,11.21,5.849,9.579,3.297L9.579,3.297z"/>
		<path opacity="0.1875" fill-rule="evenodd" clip-rule="evenodd" d="M9.579,3.297v59.406c1.377-2.198,2.494-13.299,2.494-29.704
			C12.073,16.595,10.956,5.494,9.579,3.297L9.579,3.297z"/>
		<path opacity="0.225" fill-rule="evenodd" clip-rule="evenodd" d="M9.579,3.297v59.406c1.123-1.844,2.033-13.299,2.033-29.704
			C11.612,16.595,10.702,5.14,9.579,3.297L9.579,3.297z"/>
		<path opacity="0.2625" fill-rule="evenodd" clip-rule="evenodd" d="M9.579,3.297v59.406c0.869-1.489,1.574-13.299,1.574-29.704
			C11.153,16.595,10.448,4.785,9.579,3.297L9.579,3.297z"/>
		<path opacity="0.3" fill-rule="evenodd" clip-rule="evenodd" d="M9.579,3.297v59.406c0.615-1.135,1.115-13.299,1.115-29.704
			C10.694,16.595,10.194,4.431,9.579,3.297L9.579,3.297z"/>
	</g>
</g>
<g>
	<path fill="#555555" d="M88.196,13.882h7.258c4.034,0,5.566,2.547,5.566,5.161s-1.532,5.161-5.566,5.161h-3.719v5.77h-3.539V13.882
		z M91.735,21.454h2.749c1.623,0,3.11-0.36,3.11-2.411s-1.487-2.411-3.11-2.411h-2.749V21.454z"/>
	<path fill="#555555" d="M102.886,18.322h3.043v2.163h0.045c0.608-1.465,2.118-2.479,3.719-2.479c0.248,0,0.473,0.045,0.698,0.112
		v2.975c-0.293-0.067-0.766-0.112-1.149-0.112c-2.366,0-3.155,1.668-3.155,3.741v5.251h-3.2V18.322z"/>
	<path fill="#555555" d="M114.941,16.519h-3.2v-2.637h3.2V16.519z M111.741,18.322h3.2v11.651h-3.2V18.322z"/>
	<path fill="#555555" d="M117.463,18.322h3.043v1.622h0.067c0.812-1.329,2.209-1.938,3.561-1.938c3.403,0,4.26,1.915,4.26,4.8v7.167
		h-3.2v-6.581c0-1.915-0.541-2.862-2.051-2.862c-1.735,0-2.479,0.97-2.479,3.336v6.107h-3.2V18.322z"/>
	<path fill="#555555" d="M134.88,18.322h2.344v2.141h-2.344v5.77c0,1.082,0.271,1.353,1.353,1.353c0.36,0,0.698-0.022,0.991-0.091
		v2.502c-0.54,0.09-1.239,0.112-1.87,0.112c-1.983,0-3.674-0.428-3.674-2.771v-6.874h-1.938v-2.141h1.938v-3.494h3.2V18.322z"/>
	<path fill="#555555" d="M141.391,24.926c0.091,2.051,1.06,2.952,2.862,2.952c1.285,0,2.321-0.789,2.524-1.511h2.817
		c-0.901,2.772-2.817,3.922-5.454,3.922c-3.674,0-5.95-2.524-5.95-6.13c0-3.493,2.412-6.152,5.95-6.152
		c3.967,0,5.904,3.335,5.657,6.919H141.391z M146.597,22.896c-0.293-1.622-0.991-2.479-2.546-2.479c-2.074,0-2.592,1.577-2.66,2.479
		H146.597z"/>
	<path fill="#555555" d="M160.002,28.486h-0.045c-0.744,1.262-2.028,1.803-3.538,1.803c-3.517,0-5.229-2.997-5.229-6.243
		c0-3.132,1.735-6.039,5.16-6.039c1.375,0,2.728,0.586,3.448,1.735h0.046v-5.86h3.2v16.092h-3.043V28.486z M157.207,20.418
		c-2.096,0-2.816,1.825-2.816,3.719c0,1.825,0.833,3.741,2.816,3.741c2.097,0,2.75-1.849,2.75-3.764
		C159.957,22.221,159.281,20.418,157.207,20.418z"/>
	<path fill="#555555" d="M91.149,37.279h-3.2v-2.637h3.2V37.279z M87.949,39.083h3.2v11.651h-3.2V39.083z"/>
	<path fill="#555555" d="M93.671,39.083h3.043v1.622h0.067c0.812-1.329,2.209-1.938,3.561-1.938c3.403,0,4.26,1.915,4.26,4.8v7.167
		h-3.2v-6.581c0-1.915-0.541-2.862-2.051-2.862c-1.735,0-2.479,0.97-2.479,3.336v6.107h-3.2V39.083z"/>
	<path fill="#555555" d="M117.352,39.083h2.344v2.141h-2.344v5.77c0,1.082,0.271,1.353,1.353,1.353c0.36,0,0.698-0.022,0.991-0.091
		v2.502c-0.54,0.09-1.239,0.112-1.87,0.112c-1.983,0-3.674-0.428-3.674-2.771v-6.874h-1.938v-2.141h1.938V35.59h3.2V39.083z"/>
	<path fill="#555555" d="M121.226,34.643h3.2v6.063h0.068c0.811-1.329,2.208-1.938,3.402-1.938c3.403,0,4.26,1.915,4.26,4.8v7.167
		h-3.2v-6.581c0-1.915-0.541-2.862-2.051-2.862c-1.735,0-2.479,0.97-2.479,3.336v6.107h-3.2V34.643z"/>
	<path fill="#555555" d="M137.222,45.686c0.091,2.052,1.06,2.953,2.862,2.953c1.285,0,2.321-0.789,2.524-1.51h2.817
		c-0.901,2.771-2.817,3.921-5.454,3.921c-3.674,0-5.95-2.524-5.95-6.13c0-3.493,2.412-6.152,5.95-6.152
		c3.967,0,5.904,3.335,5.656,6.918H137.222z M142.428,43.657c-0.293-1.622-0.991-2.479-2.546-2.479c-2.074,0-2.592,1.577-2.66,2.479
		H142.428z"/>
	<path fill="#555555" d="M167.777,44.649c0,4.35-2.569,6.468-6.874,6.468c-4.35,0-6.852-2.073-6.852-6.468V34.643h3.538v10.007
		c0,1.758,0.451,3.493,3.313,3.493c2.524,0,3.335-1.082,3.335-3.493V34.643h3.539V44.649z"/>
	<path fill="#555555" d="M173.226,45.393c0,2.142,1.668,2.976,3.561,2.976c1.239,0,3.133-0.36,3.133-2.006
		c0-1.758-2.434-2.006-4.778-2.659c-2.389-0.586-4.8-1.601-4.8-4.575c0-3.313,3.11-4.868,6.018-4.868
		c3.357,0,6.445,1.465,6.445,5.184h-3.426c-0.112-1.916-1.465-2.435-3.178-2.435c-1.127,0-2.434,0.474-2.434,1.826
		c0,1.239,0.766,1.42,4.8,2.434c1.194,0.271,4.778,1.06,4.778,4.688c0,2.953-2.299,5.161-6.693,5.161
		c-3.562,0-6.919-1.758-6.852-5.725H173.226z"/>
	<path fill="#555555" d="M185.256,47.264h3.538v3.471h-3.538V47.264z M188.682,38.97l-0.879,6.941h-1.601l-0.856-6.941v-4.327h3.336
		V38.97z"/>
</g>
</svg>