<?xml version="1.0" encoding="utf-8"?>
<!-- Generator: Adobe Illustrator 16.0.0, SVG Export Plug-In . SVG Version: 6.00 Build 0)  -->
<!DOCTYPE svg PUBLIC "-//W3C//DTD SVG 1.1//EN" "http://www.w3.org/Graphics/SVG/1.1/DTD/svg11.dtd">
<svg version="1.1" id="Layer_1" xmlns="http://www.w3.org/2000/svg" xmlns:xlink="http://www.w3.org/1999/xlink" x="0px" y="0px"
	 width="322px" height="194px" viewBox="0 0 322 194" enable-background="new 0 0 322 194" xml:space="preserve">
<g>
	<g>
		<circle opacity="0" fill="#FFFFFF" cx="162.992" cy="62.098" r="44.334"/>
		<path opacity="0.0625" fill="#F5F0F0" d="M207.295,61.693c0,24.484-19.819,44.334-44.303,44.334s-44.302-19.85-44.302-44.334
			c0-24.484,19.818-44.333,44.302-44.333S207.295,37.209,207.295,61.693z"/>
		<path opacity="0.125" fill="#EBE1E1" d="M207.264,61.288c0,24.485-19.788,44.335-44.272,44.335s-44.271-19.85-44.271-44.335
			c0-24.483,19.787-44.332,44.271-44.332S207.264,36.805,207.264,61.288z"/>
		<path opacity="0.1875" fill="#E0D1D2" d="M207.232,60.883c0,24.485-19.757,44.334-44.241,44.334s-44.24-19.85-44.24-44.334
			c0-24.483,19.756-44.332,44.24-44.332S207.232,36.4,207.232,60.883z"/>
		<path opacity="0.25" fill="#D6C2C3" d="M207.201,60.479c0,24.485-19.726,44.333-44.209,44.333s-44.208-19.849-44.208-44.333
			c0-24.484,19.725-44.333,44.208-44.333S207.201,35.995,207.201,60.479z"/>
		<path opacity="0.3125" fill="#CCB3B3" d="M207.17,60.075c0,24.484-19.694,44.333-44.179,44.333
			c-24.483,0-44.178-19.849-44.178-44.333s19.694-44.333,44.178-44.333C187.476,15.742,207.17,35.59,207.17,60.075z"/>
		<path opacity="0.375" fill="#C2A4A4" d="M207.139,59.67c0,24.484-19.663,44.334-44.147,44.334
			c-24.483,0-44.146-19.85-44.146-44.334s19.663-44.333,44.146-44.333C187.476,15.337,207.139,35.186,207.139,59.67z"/>
		<path opacity="0.4375" fill="#B89495" d="M207.107,59.265c0,24.485-19.632,44.334-44.116,44.334
			c-24.483,0-44.115-19.849-44.115-44.334c0-24.483,19.632-44.332,44.115-44.332C187.476,14.933,207.107,34.781,207.107,59.265z"/>
		<path opacity="0.5" fill="#AE8586" d="M207.076,58.86c0,24.484-19.601,44.334-44.084,44.334s-44.084-19.85-44.084-44.334
			s19.601-44.333,44.084-44.333S207.076,34.376,207.076,58.86z"/>
		<path opacity="0.5625" fill="#A37677" d="M207.045,58.456c0,24.484-19.569,44.333-44.054,44.333
			c-24.483,0-44.053-19.849-44.053-44.333s19.57-44.333,44.053-44.333C187.476,14.123,207.045,33.972,207.045,58.456z"/>
		<path opacity="0.625" fill="#996768" d="M207.013,58.051c0,24.485-19.537,44.333-44.021,44.333
			c-24.483,0-44.022-19.849-44.022-44.333s19.539-44.333,44.022-44.333C187.476,13.718,207.013,33.566,207.013,58.051z"/>
		<path opacity="0.6875" fill="#8F5759" d="M206.982,57.646c0,24.484-19.507,44.334-43.991,44.334
			c-24.483,0-43.991-19.85-43.991-44.334c0-24.485,19.508-44.333,43.991-44.333C187.476,13.313,206.982,33.162,206.982,57.646z"/>
		<path opacity="0.75" fill="#85484A" d="M206.951,57.242c0,24.484-19.476,44.334-43.959,44.334s-43.961-19.85-43.961-44.334
			c0-24.485,19.477-44.333,43.961-44.333S206.951,32.757,206.951,57.242z"/>
		<path opacity="0.8125" fill="#7B393A" d="M206.919,56.837c0,24.485-19.443,44.334-43.927,44.334s-43.93-19.849-43.93-44.334
			s19.446-44.333,43.93-44.333S206.919,32.352,206.919,56.837z"/>
		<path opacity="0.875" fill="#702A2B" d="M206.888,56.432c0,24.484-19.412,44.334-43.896,44.334s-43.898-19.85-43.898-44.334
			c0-24.485,19.415-44.333,43.898-44.333S206.888,31.947,206.888,56.432z"/>
		<path opacity="0.9375" fill="#661A1C" d="M206.856,56.027c0,24.485-19.381,44.335-43.865,44.335s-43.868-19.85-43.868-44.335
			s19.384-44.333,43.868-44.333S206.856,31.542,206.856,56.027z"/>
		<path fill="#5C0B0D" d="M206.825,55.623c0,24.484-19.35,44.334-43.833,44.334s-43.836-19.85-43.836-44.334
			c0-24.485,19.353-44.333,43.836-44.333S206.825,31.138,206.825,55.623z"/>
	</g>
	<circle fill="#8A1014" cx="162.992" cy="56.866" r="44.334"/>
	<g>
		<defs>
			<path id="SVGID_1_" d="M207.326,55.37c0,24.481-19.851,44.333-44.334,44.333s-44.333-19.853-44.333-44.333
				c0-24.486,19.849-44.335,44.333-44.335S207.326,30.884,207.326,55.37z"/>
		</defs>
		<linearGradient id="SVGID_2_" gradientUnits="userSpaceOnUse" x1="162.9927" y1="99.7031" x2="162.9927" y2="11.0347">
			<stop  offset="0" style="stop-color:#C7171D"/>
			<stop  offset="0.5" style="stop-color:#FF1D25"/>
			<stop  offset="1" style="stop-color:#FF5257"/>
		</linearGradient>
		<use xlink:href="#SVGID_1_"  overflow="visible" fill="url(#SVGID_2_)"/>
		<clipPath id="SVGID_3_">
			<use xlink:href="#SVGID_1_"  overflow="visible"/>
		</clipPath>
	</g>
	<g>
		<path fill="#6E0D10" d="M163.385,19.135c20.302,0,36.762,16.458,36.762,36.764c0,20.302-16.46,36.762-36.762,36.762
			c-20.306,0-36.766-16.46-36.766-36.762C126.619,35.593,143.079,19.135,163.385,19.135L163.385,19.135z M163.385,16.458
			c-10.535,0-20.439,4.102-27.889,11.551c-7.45,7.45-11.55,17.352-11.55,27.889c0,10.534,4.1,20.438,11.55,27.885
			c7.45,7.45,17.354,11.552,27.889,11.552c10.534,0,20.439-4.103,27.886-11.552c7.451-7.447,11.553-17.352,11.553-27.885
			c0-10.538-4.102-20.439-11.553-27.889C183.824,20.561,173.919,16.458,163.385,16.458L163.385,16.458z"/>
		<path fill="#FFFFFF" d="M163.385,19.525c20.302,0,36.762,16.459,36.762,36.763c0,20.303-16.46,36.762-36.762,36.762
			c-20.306,0-36.766-16.459-36.766-36.762C126.619,35.985,143.079,19.525,163.385,19.525L163.385,19.525z M163.385,16.85
			c-10.535,0-20.439,4.102-27.889,11.552c-7.45,7.45-11.55,17.352-11.55,27.887c0,10.536,4.1,20.438,11.55,27.887
			c7.45,7.451,17.354,11.554,27.889,11.554c10.534,0,20.439-4.104,27.886-11.554c7.451-7.449,11.553-17.351,11.553-27.887
			c0-10.535-4.102-20.437-11.553-27.887C183.824,20.952,173.919,16.85,163.385,16.85L163.385,16.85z"/>
		<g>
			<defs>
				<circle id="SVGID_4_" cx="163.383" cy="56.288" r="36.764"/>
			</defs>
			<clipPath id="SVGID_5_">
				<use xlink:href="#SVGID_4_"  overflow="visible"/>
			</clipPath>
			<g clip-path="url(#SVGID_5_)">
				<path fill-rule="evenodd" clip-rule="evenodd" fill="#6E0D10" d="M198.03,85.454c0,0.394,0,0.789,0,1.182
					c-8.266,0-16.529,0-24.794,0c-0.229-3.195-7.88-8.405-9.66-8.208c-4.847-0.309-18.487-9.292-18.714-9.723
					c-4.888-1.977-4.256-7.167,0.186-6.462c-3.656-0.181-5.449-5.555-0.698-6.495c-2.47-0.656-2.985-7.265,2.222-6.93
					c-2.729-1.109-3.246-7.771,3.833-6.125c1.206,0.28,11.427,4.252,14.37,3.996c0.014-0.921,0.363-2.404,0.098-3.739
					c-0.239-1.198-1.353-2.573-1.966-3.936c-0.623-1.385-1.325-2.892-1.576-4.429c-0.447-2.736,0.627-5.092,1.379-7.084
					c0.913-2.425,2.395-6.176,5.411-4.132c0.056,2.669-0.862,5.183-0.393,7.773c0.142,0.794,0.473,1.601,0.786,2.36
					c0.316,0.771,0.493,1.598,0.788,2.363c0.622,1.607,1.809,3.554,2.854,5.018c1.181,1.663,2.845,2.902,3.346,4.526
					c0.291,0.951,0.194,2.471,0.293,3.739c0.097,1.241,0.037,2.561,0.197,3.543c0.247,1.513,0.752,3.27,1.081,5.018
					c0.331,1.747,0.057,3.958,0.688,5.51c0.48,1.177,1.911,1.845,3.052,2.754C187.59,71.374,191.899,79.834,198.03,85.454z"/>
				<path fill-rule="evenodd" clip-rule="evenodd" fill="#6E0D10" d="M171.181,93.305c0,0-2.061-4.563-0.617-5.659
					c1.05-0.794,0.061-1.352-0.038-2.924c-0.271-1.636,12.733-19.344,16.963-15.274c0,0,13.26,9.852,13.44,15.137
					C201.113,89.868,171.181,93.305,171.181,93.305z"/>
			</g>
			<g clip-path="url(#SVGID_5_)">
				<path fill-rule="evenodd" clip-rule="evenodd" fill="#FFFFFF" d="M198.03,85.846c0,0.393,0,0.789,0,1.179
					c-8.266,0-16.529,0-24.794,0c-0.229-3.194-7.88-8.403-9.66-8.205c-4.847-0.311-18.487-9.293-18.714-9.726
					c-4.888-1.979-4.256-7.164,0.186-6.46c-3.656-0.182-5.449-5.556-0.698-6.496c-2.47-0.656-2.985-7.263,2.222-6.931
					c-2.729-1.109-3.246-7.769,3.833-6.124c1.206,0.281,11.427,4.252,14.37,3.994c0.014-0.921,0.363-2.404,0.098-3.74
					c-0.239-1.194-1.353-2.572-1.966-3.934c-0.623-1.386-1.325-2.891-1.576-4.43c-0.447-2.733,0.627-5.089,1.379-7.083
					c0.913-2.423,2.395-6.177,5.411-4.131c0.056,2.67-0.862,5.182-0.393,7.773c0.142,0.794,0.473,1.6,0.786,2.359
					c0.316,0.771,0.493,1.597,0.788,2.363c0.622,1.609,1.809,3.553,2.854,5.019c1.181,1.662,2.845,2.9,3.346,4.525
					c0.291,0.951,0.194,2.47,0.293,3.738c0.097,1.243,0.037,2.561,0.197,3.543c0.247,1.513,0.752,3.271,1.081,5.02
					c0.331,1.748,0.057,3.958,0.688,5.508c0.48,1.18,1.911,1.845,3.052,2.755C187.59,71.767,191.899,80.226,198.03,85.846z"/>
				<path fill-rule="evenodd" clip-rule="evenodd" fill="#FFFFFF" d="M171.181,93.695c0,0-2.061-4.564-0.617-5.659
					c1.05-0.795,0.061-1.351-0.038-2.924c-0.271-1.634,12.733-19.343,16.963-15.276c0,0,13.26,9.855,13.44,15.14
					C201.113,90.259,171.181,93.695,171.181,93.695z"/>
			</g>
		</g>
	</g>
</g>
<g>
	<g>
		<path fill="#555555" d="M23.336,142.709h-5.053v-16.16h-6.265v-3.81c3.523,0.107,6.728-1.138,7.297-4.948h4.021V142.709z"/>
		<path fill="#555555" d="M39.034,117.295c4.982,0,9.185,3.131,9.185,12.848c0,9.933-4.202,13.064-9.185,13.064
			c-4.946,0-9.111-3.132-9.111-13.064C29.922,120.426,34.088,117.295,39.034,117.295z M39.034,139.042
			c4.129,0,4.129-6.086,4.129-8.899c0-2.598,0-8.685-4.129-8.685c-4.092,0-4.058,6.087-4.058,8.685
			C34.976,132.956,34.976,139.042,39.034,139.042z"/>
		<path fill="#555555" d="M58.827,117.295c4.983,0,9.182,3.131,9.182,12.848c0,9.933-4.199,13.064-9.182,13.064
			c-4.949,0-9.111-3.132-9.111-13.064C49.715,120.426,53.877,117.295,58.827,117.295z M58.827,139.042
			c4.129,0,4.129-6.086,4.129-8.899c0-2.598,0-8.685-4.129-8.685c-4.095,0-4.059,6.087-4.059,8.685
			C54.768,132.956,54.768,139.042,58.827,139.042z"/>
		<path fill="#555555" d="M77.478,117.295c4.414,0,5.837,3.273,5.837,7.188c0,3.881-1.852,6.692-6.017,6.692
			c-4.377,0-5.873-2.918-5.873-6.833C71.425,120.463,73.313,117.295,77.478,117.295z M77.334,128.506
			c2.207,0,2.348-2.563,2.348-4.057c0-1.425-0.104-4.485-2.204-4.485c-2.279,0-2.42,2.813-2.42,4.45
			C75.057,125.943,75.057,128.506,77.334,128.506z M92.533,117.01h3.024l-14.664,26.482h-3.097L92.533,117.01z M95.845,129.326
			c4.414,0,5.837,3.131,5.837,7.012c0,3.845-1.852,6.869-6.015,6.869c-4.379,0-5.873-3.132-5.873-7.014
			C89.794,132.35,91.679,129.326,95.845,129.326z M95.701,140.537c2.207,0,2.351-2.775,2.351-4.271c0-1.387-0.107-4.271-2.207-4.271
			c-2.28,0-2.421,2.599-2.421,4.236C93.424,137.762,93.424,140.537,95.701,140.537z"/>
		<path fill="#555555" d="M120.513,134.271c0,3.382,2.632,4.7,5.623,4.7c1.959,0,4.948-0.57,4.948-3.168
			c0-2.777-3.844-3.17-7.547-4.2c-3.773-0.925-7.581-2.528-7.581-7.227c0-5.231,4.912-7.689,9.503-7.689
			c5.304,0,10.179,2.314,10.179,8.188h-5.408c-0.178-3.026-2.313-3.844-5.02-3.844c-1.781,0-3.844,0.746-3.844,2.883
			c0,1.957,1.209,2.243,7.581,3.845c1.885,0.427,7.545,1.671,7.545,7.403c0,4.663-3.63,8.15-10.572,8.15
			c-5.622,0-10.927-2.776-10.819-9.042H120.513z"/>
		<path fill="#555555" d="M139.058,129.966c0.284-4.698,4.52-6.157,8.649-6.157c3.667,0,8.08,0.818,8.08,5.233v9.573
			c0,1.674,0.178,3.345,0.64,4.094H151.3c-0.178-0.568-0.318-1.175-0.355-1.779c-1.6,1.672-3.914,2.277-6.191,2.277
			c-3.526,0-6.265-1.744-6.265-5.517c0.071-8.364,12.457-3.881,12.243-8.009c0-2.137-1.494-2.491-3.272-2.491
			c-1.959,0-3.171,0.782-3.349,2.775H139.058z M150.731,133.703c-0.854,0.746-2.633,0.783-4.2,1.068
			c-1.567,0.284-2.991,0.854-2.991,2.704c0,1.852,1.46,2.351,3.097,2.351c3.952,0,4.093-3.097,4.093-4.236V133.703z"/>
		<path fill="#555555" d="M166.106,124.307h3.703v3.38h-3.703v9.114c0,1.707,0.429,2.137,2.138,2.137
			c0.569,0,1.104-0.038,1.565-0.145v3.951c-0.856,0.142-1.959,0.18-2.956,0.18c-3.13,0-5.799-0.68-5.799-4.379v-10.858h-3.061v-3.38
			h3.061v-5.519h5.052V124.307z"/>
		<path fill="#555555" d="M177.428,121.458h-5.056v-4.163h5.056V121.458z M172.372,124.307h5.056v18.402h-5.056V124.307z"/>
		<path fill="#555555" d="M185.328,136.729c0,2.17,1.922,3.097,3.88,3.097c1.425,0,3.312-0.569,3.312-2.351
			c0-1.53-2.135-2.1-5.731-2.847c-2.954-0.677-5.837-1.638-5.837-4.911c0-4.7,4.057-5.909,8.008-5.909
			c3.987,0,7.725,1.353,8.115,5.873h-4.806c-0.143-1.959-1.636-2.491-3.45-2.491c-1.14,0-2.814,0.177-2.814,1.707
			c0,1.814,2.884,2.066,5.733,2.741c2.954,0.677,5.836,1.743,5.836,5.162c0,4.84-4.235,6.406-8.4,6.406
			c-4.271,0-8.472-1.603-8.65-6.478H185.328z"/>
		<path fill="#555555" d="M201.633,127.687h-3.027v-3.38h3.027v-1.423c0-3.274,2.029-5.589,6.157-5.589
			c0.888,0,1.815,0.106,2.668,0.141v3.773c-0.604-0.069-1.245-0.106-1.852-0.106c-1.387,0-1.922,0.569-1.922,2.1v1.104h3.489v3.38
			h-3.489v15.022h-5.052V127.687z"/>
		<path fill="#555555" d="M212.167,129.966c0.283-4.698,4.52-6.157,8.648-6.157c3.667,0,8.081,0.818,8.081,5.233v9.573
			c0,1.674,0.177,3.345,0.642,4.094h-5.126c-0.177-0.568-0.322-1.175-0.355-1.779c-1.604,1.672-3.917,2.277-6.193,2.277
			c-3.523,0-6.266-1.744-6.266-5.517c0.07-8.364,12.459-3.881,12.244-8.009c0-2.137-1.492-2.491-3.274-2.491
			c-1.958,0-3.166,0.782-3.345,2.775H212.167z M223.842,133.703c-0.853,0.746-2.635,0.783-4.2,1.068
			c-1.565,0.284-2.988,0.854-2.988,2.704c0,1.852,1.46,2.351,3.097,2.351c3.95,0,4.092-3.097,4.092-4.236V133.703z"/>
		<path fill="#555555" d="M245.344,130.785c-0.321-2.1-1.567-3.168-3.737-3.168c-3.241,0-4.31,3.272-4.31,5.979
			c0,2.669,1.032,5.803,4.199,5.803c2.388,0,3.703-1.462,4.024-3.738h4.876c-0.676,4.876-3.987,7.546-8.863,7.546
			c-5.552,0-9.289-3.915-9.289-9.433c0-5.73,3.416-9.966,9.396-9.966c4.345,0,8.365,2.276,8.65,6.977H245.344z"/>
		<path fill="#555555" d="M259.649,124.307h3.703v3.38h-3.703v9.114c0,1.707,0.429,2.137,2.136,2.137
			c0.569,0,1.104-0.038,1.567-0.145v3.951c-0.854,0.142-1.959,0.18-2.954,0.18c-3.134,0-5.803-0.68-5.803-4.379v-10.858h-3.061
			v-3.38h3.061v-5.519h5.054V124.307z"/>
		<path fill="#555555" d="M270.971,121.458h-5.057v-4.163h5.057V121.458z M265.914,124.307h5.057v18.402h-5.057V124.307z"/>
		<path fill="#555555" d="M283.89,123.809c5.802,0,9.538,3.844,9.538,9.718c0,5.836-3.736,9.681-9.538,9.681
			c-5.768,0-9.504-3.845-9.504-9.681C274.386,127.652,278.122,123.809,283.89,123.809z M283.89,139.399
			c3.452,0,4.487-2.921,4.487-5.873c0-2.954-1.035-5.909-4.487-5.909c-3.416,0-4.448,2.955-4.448,5.909
			C279.441,136.479,280.474,139.399,283.89,139.399z"/>
		<path fill="#555555" d="M296.704,124.307h4.808v2.562h0.104c1.282-2.099,3.489-3.06,5.626-3.06c5.373,0,6.726,3.025,6.726,7.581
			v11.319h-5.052v-10.394c0-3.025-0.856-4.521-3.242-4.521c-2.738,0-3.914,1.532-3.914,5.269v9.646h-5.056V124.307z"/>
	</g>
	<g>
		<path fill="#555555" d="M79.718,177.11c-1.992,2.562-4.52,3.487-6.975,3.487c-7.833,0-12.493-5.872-12.493-13.205
			c0-7.547,4.661-13.421,12.493-13.421c5.197,0,10.144,3.169,10.712,8.971h-5.338c-0.676-2.848-2.706-4.272-5.375-4.272
			c-5.02,0-6.907,4.272-6.907,8.723c0,4.235,1.888,8.507,6.907,8.507c3.667,0,5.73-1.924,6.051-5.482h-5.625v-4.163h10.682v13.739
			h-3.563L79.718,177.11z"/>
		<path fill="#555555" d="M105.098,179.993h-4.805v-2.563h-0.107c-1.28,2.1-3.486,3.061-5.623,3.061
			c-5.374,0-6.727-3.026-6.727-7.583V161.59h5.053v10.394c0,3.025,0.857,4.521,3.241,4.521c2.739,0,3.915-1.53,3.915-5.268v-9.646
			h5.054V179.993z"/>
		<path fill="#555555" d="M108.73,167.249c0.285-4.698,4.521-6.158,8.649-6.158c3.667,0,8.08,0.82,8.08,5.234v9.574
			c0,1.673,0.178,3.346,0.64,4.094h-5.127c-0.177-0.569-0.318-1.177-0.355-1.779c-1.601,1.672-3.915,2.277-6.194,2.277
			c-3.523,0-6.263-1.744-6.263-5.518c0.071-8.364,12.457-3.879,12.243-8.009c0-2.136-1.494-2.491-3.275-2.491
			c-1.956,0-3.168,0.782-3.345,2.775H108.73z M120.403,170.986c-0.854,0.749-2.632,0.782-4.199,1.067
			c-1.567,0.285-2.99,0.854-2.99,2.706c0,1.853,1.459,2.351,3.097,2.351c3.952,0,4.092-3.097,4.092-4.236V170.986z"/>
		<path fill="#555555" d="M129.374,161.59h4.805v3.419h0.07c0.961-2.315,3.348-3.918,5.876-3.918c0.389,0,0.747,0.072,1.102,0.178
			v4.701c-0.461-0.107-1.212-0.179-1.815-0.179c-3.737,0-4.982,2.634-4.982,5.908v8.294h-5.056V161.59z"/>
		<path fill="#555555" d="M143.006,167.249c0.285-4.698,4.521-6.158,8.649-6.158c3.667,0,8.081,0.82,8.081,5.234v9.574
			c0,1.673,0.178,3.346,0.642,4.094h-5.126c-0.177-0.569-0.321-1.177-0.355-1.779c-1.604,1.672-3.917,2.277-6.194,2.277
			c-3.523,0-6.265-1.744-6.265-5.518c0.07-8.364,12.459-3.879,12.245-8.009c0-2.136-1.497-2.491-3.275-2.491
			c-1.959,0-3.168,0.782-3.345,2.775H143.006z M154.682,170.986c-0.854,0.749-2.635,0.782-4.202,1.067
			c-1.565,0.285-2.988,0.854-2.988,2.706c0,1.853,1.457,2.351,3.095,2.351c3.951,0,4.095-3.097,4.095-4.236V170.986z"/>
		<path fill="#555555" d="M163.653,161.59h4.805v2.563h0.107c1.279-2.102,3.484-3.063,5.622-3.063c5.375,0,6.728,3.027,6.728,7.582
			v11.32h-5.055V169.6c0-3.026-0.852-4.521-3.24-4.521c-2.739,0-3.914,1.531-3.914,5.269v9.646h-5.053V161.59z"/>
		<path fill="#555555" d="M191.165,161.59h3.702v3.383h-3.702v9.11c0,1.708,0.429,2.137,2.137,2.137
			c0.568,0,1.104-0.036,1.565-0.143v3.949c-0.854,0.145-1.957,0.181-2.953,0.181c-3.134,0-5.803-0.677-5.803-4.38v-10.854h-3.06
			v-3.383h3.06v-5.517h5.054V161.59z"/>
		<path fill="#555555" d="M201.45,172.021c0.145,3.238,1.675,4.662,4.522,4.662c2.028,0,3.666-1.247,3.987-2.385h4.449
			c-1.422,4.377-4.449,6.193-8.613,6.193c-5.801,0-9.396-3.987-9.396-9.683c0-5.516,3.806-9.718,9.396-9.718
			c6.264,0,9.324,5.269,8.936,10.93H201.45z M209.676,168.816c-0.463-2.563-1.567-3.915-4.021-3.915
			c-3.275,0-4.093,2.491-4.204,3.915H209.676z"/>
		<path fill="#555555" d="M221.885,172.021c0.141,3.238,1.67,4.662,4.52,4.662c2.029,0,3.667-1.247,3.984-2.385h4.451
			c-1.423,4.377-4.451,6.193-8.613,6.193c-5.803,0-9.396-3.987-9.396-9.683c0-5.516,3.808-9.718,9.396-9.718
			c6.266,0,9.326,5.269,8.935,10.93H221.885z M230.106,168.816c-0.463-2.563-1.565-3.915-4.022-3.915
			c-3.276,0-4.094,2.491-4.199,3.915H230.106z"/>
		<path fill="#555555" d="M251.284,177.643h-0.07c-1.176,1.993-3.204,2.849-5.589,2.849c-5.552,0-8.258-4.733-8.258-9.859
			c0-4.947,2.742-9.541,8.15-9.541c2.174,0,4.31,0.928,5.448,2.741h0.07v-9.254h5.053v25.415h-4.805V177.643z M246.871,164.901
			c-3.31,0-4.447,2.883-4.447,5.872c0,2.885,1.315,5.909,4.447,5.909c3.312,0,4.343-2.919,4.343-5.944
			C251.214,167.747,250.146,164.901,246.871,164.901z"/>
		<path fill="#555555" d="M260.147,174.512h5.59v5.481h-5.59V174.512z M265.559,161.411l-1.389,10.965h-2.528l-1.353-10.965v-6.833
			h5.27V161.411z"/>
	</g>
</g>
</svg>