<?xml version="1.0" encoding="utf-8"?>
<!-- Generator: Adobe Illustrator 16.0.0, SVG Export Plug-In . SVG Version: 6.00 Build 0)  -->
<!DOCTYPE svg PUBLIC "-//W3C//DTD SVG 1.1//EN" "http://www.w3.org/Graphics/SVG/1.1/DTD/svg11.dtd">
<svg version="1.1" id="Isolation_Mode" xmlns="http://www.w3.org/2000/svg" xmlns:xlink="http://www.w3.org/1999/xlink" x="0px"
	 y="0px" width="296px" height="66px" viewBox="0 0 296 66" enable-background="new 0 0 296 66" xml:space="preserve">
<g>
	<g>
		<g>
			<g>
				<circle id="SVGID_3_" fill="#B9B9B9" cx="37.016" cy="33" r="25.211"/>
			</g>
		</g>
		<g>
			<path fill="#FFFFFF" d="M37.239,12.618c11.545,0,20.905,9.359,20.905,20.905c0,11.545-9.36,20.905-20.905,20.905
				c-11.547,0-20.907-9.36-20.907-20.905C16.332,21.977,25.692,12.618,37.239,12.618L37.239,12.618z M37.239,11.095
				c-5.991,0-11.624,2.333-15.859,6.569c-4.235,4.236-6.568,9.867-6.568,15.857c0,5.991,2.333,11.623,6.568,15.858
				c4.236,4.235,9.868,6.57,15.859,6.57c5.99,0,11.623-2.335,15.857-6.57c4.237-4.235,6.569-9.868,6.569-15.858
				s-2.332-11.623-6.569-15.857C48.862,13.429,43.229,11.095,37.239,11.095L37.239,11.095z"/>
			<g>
				<g>
					<g>
						<defs>
							<circle id="SVGID_1_" cx="37.238" cy="33.523" r="20.906"/>
						</defs>
						<clipPath id="SVGID_2_">
							<use xlink:href="#SVGID_1_"  overflow="visible"/>
						</clipPath>
						<g clip-path="url(#SVGID_2_)">
							<path fill="#FFFFFF" d="M56.94,50.332c0,0.223,0,0.447,0,0.671c-4.7,0-9.399,0-14.1,0c-0.13-1.817-4.48-4.78-5.493-4.666
								c-2.756-0.177-10.513-5.285-10.642-5.53c-2.78-1.125-2.419-4.074,0.105-3.674c-2.079-0.104-3.099-3.16-0.397-3.693
								c-1.405-0.373-1.698-4.131,1.263-3.941c-1.552-0.631-1.846-4.418,2.18-3.482c0.686,0.16,6.498,2.418,8.172,2.272
								c0.008-0.524,0.206-1.368,0.055-2.127c-0.135-0.68-0.769-1.463-1.117-2.238c-0.354-0.788-0.754-1.644-0.896-2.519
								c-0.254-1.555,0.356-2.895,0.784-4.028c0.52-1.378,1.362-3.512,3.077-2.35c0.031,1.519-0.49,2.947-0.224,4.42
								c0.08,0.451,0.27,0.91,0.447,1.342c0.18,0.439,0.28,0.909,0.448,1.344c0.353,0.914,1.028,2.021,1.623,2.854
								c0.672,0.946,1.618,1.649,1.902,2.573c0.165,0.541,0.111,1.406,0.167,2.127c0.055,0.707,0.021,1.455,0.112,2.014
								c0.14,0.861,0.428,1.861,0.615,2.854c0.188,0.995,0.031,2.251,0.392,3.134c0.272,0.67,1.086,1.049,1.734,1.565
								C51.004,42.325,53.454,47.135,56.94,50.332z"/>
							<path fill="#FFFFFF" d="M41.672,54.795c0,0-1.172-2.595-0.351-3.218c0.597-0.453,0.034-0.769-0.021-1.663
								c-0.154-0.93,7.241-11,9.646-8.688c0,0,7.541,5.604,7.645,8.607S41.672,54.795,41.672,54.795z"/>
						</g>
					</g>
				</g>
			</g>
		</g>
	</g>
	<g>
		<g>
			<path fill="#B9B9B9" d="M84.714,29.544h-3.503V18.345H76.87v-2.639c2.442,0.074,4.662-0.79,5.058-3.429h2.787V29.544z"/>
			<path fill="#B9B9B9" d="M95.594,11.932c3.453,0,6.364,2.171,6.364,8.905c0,6.882-2.911,9.054-6.364,9.054
				c-3.429,0-6.314-2.172-6.314-9.054C89.279,14.103,92.166,11.932,95.594,11.932z M95.594,27.003c2.861,0,2.861-4.218,2.861-6.167
				c0-1.801,0-6.019-2.861-6.019c-2.837,0-2.813,4.218-2.813,6.019C92.782,22.786,92.782,27.003,95.594,27.003z"/>
			<path fill="#B9B9B9" d="M109.31,11.932c3.453,0,6.364,2.171,6.364,8.905c0,6.882-2.911,9.054-6.364,9.054
				c-3.43,0-6.314-2.172-6.314-9.054C102.996,14.103,105.879,11.932,109.31,11.932z M109.31,27.003c2.861,0,2.861-4.218,2.861-6.167
				c0-1.801,0-6.019-2.861-6.019c-2.837,0-2.813,4.218-2.813,6.019C106.498,22.786,106.498,27.003,109.31,27.003z"/>
			<path fill="#B9B9B9" d="M122.235,11.932c3.059,0,4.046,2.269,4.046,4.983c0,2.688-1.283,4.638-4.17,4.638
				c-3.033,0-4.07-2.023-4.07-4.736C118.041,14.127,119.349,11.932,122.235,11.932z M122.136,19.702c1.53,0,1.628-1.776,1.628-2.812
				c0-0.987-0.073-3.108-1.528-3.108c-1.579,0-1.678,1.949-1.678,3.083C120.558,17.926,120.558,19.702,122.136,19.702z
				 M132.668,11.734h2.098l-10.162,18.353h-2.146L132.668,11.734z M134.963,20.27c3.06,0,4.047,2.17,4.047,4.859
				c0,2.664-1.283,4.762-4.17,4.762c-3.034,0-4.069-2.172-4.069-4.861C130.771,22.366,132.078,20.27,134.963,20.27z M134.865,28.04
				c1.528,0,1.629-1.925,1.629-2.96c0-0.962-0.074-2.96-1.529-2.96c-1.579,0-1.678,1.801-1.678,2.935
				C133.287,26.115,133.287,28.04,134.865,28.04z"/>
			<path fill="#B9B9B9" d="M152.06,23.698c0,2.343,1.825,3.256,3.897,3.256c1.354,0,3.429-0.396,3.429-2.195
				c0-1.924-2.664-2.196-5.229-2.911c-2.615-0.641-5.255-1.751-5.255-5.008c0-3.626,3.404-5.328,6.587-5.328
				c3.676,0,7.055,1.604,7.055,5.674h-3.748c-0.123-2.097-1.604-2.664-3.479-2.664c-1.232,0-2.664,0.518-2.664,1.998
				c0,1.356,0.84,1.554,5.256,2.664c1.307,0.296,5.229,1.159,5.229,5.131c0,3.231-2.518,5.649-7.326,5.649
				c-3.896,0-7.572-1.924-7.499-6.266H152.06z"/>
			<path fill="#B9B9B9" d="M164.912,20.713c0.196-3.256,3.133-4.268,5.994-4.268c2.54,0,5.6,0.567,5.6,3.626v6.635
				c0,1.159,0.123,2.319,0.443,2.837h-3.553c-0.123-0.395-0.223-0.814-0.246-1.232c-1.109,1.158-2.714,1.578-4.292,1.578
				c-2.442,0-4.342-1.209-4.342-3.824c0.049-5.796,8.634-2.688,8.485-5.55c0-1.479-1.035-1.727-2.271-1.727
				c-1.356,0-2.194,0.543-2.317,1.924h-3.502V20.713L164.912,20.713z M173.002,23.304c-0.592,0.518-1.825,0.542-2.912,0.74
				c-1.084,0.197-2.07,0.592-2.07,1.875s1.012,1.628,2.146,1.628c2.735,0,2.836-2.146,2.836-2.936V23.304L173.002,23.304z"/>
			<path fill="#B9B9B9" d="M183.658,16.792h2.565v2.343h-2.565v6.315c0,1.184,0.297,1.479,1.48,1.479
				c0.395,0,0.765-0.024,1.085-0.099v2.738c-0.593,0.099-1.356,0.123-2.048,0.123c-2.17,0-4.021-0.469-4.021-3.035v-7.523h-2.121
				v-2.342h2.121v-3.824h3.504V16.792L183.658,16.792z"/>
			<path fill="#B9B9B9" d="M191.502,14.818h-3.504v-2.886h3.504V14.818z M187.998,16.792h3.504v12.753h-3.504V16.792z"/>
			<path fill="#B9B9B9" d="M196.979,25.4c0,1.504,1.332,2.146,2.688,2.146c0.987,0,2.295-0.396,2.295-1.628
				c0-1.061-1.479-1.455-3.971-1.973c-2.049-0.469-4.047-1.135-4.047-3.404c0-3.256,2.813-4.095,5.551-4.095
				c2.762,0,5.354,0.938,5.625,4.07h-3.33c-0.101-1.356-1.136-1.727-2.394-1.727c-0.79,0-1.949,0.124-1.949,1.184
				c0,1.258,1.998,1.431,3.972,1.899c2.047,0.469,4.045,1.208,4.045,3.577c0,3.355-2.935,4.442-5.819,4.442
				c-2.96,0-5.871-1.111-5.994-4.491H196.979z"/>
			<path fill="#B9B9B9" d="M208.276,19.134h-2.097v-2.343h2.097v-0.987c0-2.27,1.406-3.873,4.269-3.873
				c0.615,0,1.26,0.074,1.852,0.099v2.615c-0.42-0.049-0.863-0.074-1.283-0.074c-0.962,0-1.332,0.395-1.332,1.456v0.765h2.42v2.343
				h-2.42v10.41h-3.503L208.276,19.134L208.276,19.134z"/>
			<path fill="#B9B9B9" d="M215.578,20.713c0.197-3.256,3.133-4.268,5.994-4.268c2.541,0,5.6,0.567,5.6,3.626v6.635
				c0,1.159,0.123,2.319,0.445,2.837h-3.553c-0.124-0.395-0.223-0.814-0.247-1.232c-1.11,1.158-2.714,1.578-4.292,1.578
				c-2.441,0-4.342-1.209-4.342-3.824c0.049-5.796,8.634-2.688,8.484-5.55c0-1.479-1.034-1.727-2.27-1.727
				c-1.355,0-2.195,0.543-2.318,1.924h-3.502V20.713L215.578,20.713z M223.668,23.304c-0.592,0.518-1.824,0.542-2.91,0.74
				c-1.084,0.197-2.071,0.592-2.071,1.875s1.013,1.628,2.146,1.628c2.737,0,2.836-2.146,2.836-2.936V23.304L223.668,23.304z"/>
			<path fill="#B9B9B9" d="M238.569,21.281c-0.222-1.455-1.086-2.195-2.59-2.195c-2.246,0-2.985,2.269-2.985,4.144
				c0,1.85,0.715,4.021,2.91,4.021c1.653,0,2.565-1.013,2.788-2.59h3.379c-0.469,3.38-2.763,5.229-6.142,5.229
				c-3.85,0-6.438-2.714-6.438-6.538c0-3.971,2.366-6.907,6.512-6.907c3.01,0,5.798,1.579,5.994,4.835H238.569z"/>
			<path fill="#B9B9B9" d="M248.484,16.792h2.564v2.343h-2.564v6.315c0,1.184,0.297,1.479,1.48,1.479
				c0.395,0,0.765-0.024,1.084-0.099v2.738c-0.592,0.099-1.355,0.123-2.047,0.123c-2.17,0-4.021-0.469-4.021-3.035v-7.523h-2.121
				v-2.342h2.121v-3.824h3.503L248.484,16.792L248.484,16.792z"/>
			<path fill="#B9B9B9" d="M256.33,14.818h-3.504v-2.886h3.504V14.818z M252.826,16.792h3.504v12.753h-3.504V16.792z"/>
			<path fill="#B9B9B9" d="M265.283,16.446c4.021,0,6.611,2.664,6.611,6.734c0,4.045-2.59,6.711-6.611,6.711
				c-3.996,0-6.586-2.666-6.586-6.711C258.697,19.11,261.287,16.446,265.283,16.446z M265.283,27.251
				c2.395,0,3.108-2.023,3.108-4.07c0-2.047-0.716-4.095-3.108-4.095c-2.367,0-3.082,2.047-3.082,4.095
				C262.201,25.229,262.916,27.251,265.283,27.251z"/>
			<path fill="#B9B9B9" d="M274.164,16.792h3.332v1.776h0.072c0.889-1.456,2.417-2.122,3.896-2.122c3.727,0,4.662,2.097,4.662,5.254
				v7.845h-3.502v-7.204c0-2.097-0.593-3.133-2.244-3.133c-1.899,0-2.713,1.061-2.713,3.651v6.685h-3.504V16.792L274.164,16.792z"/>
		</g>
		<g>
			<path fill="#B9B9B9" d="M123.789,53.385c-1.382,1.776-3.133,2.417-4.835,2.417c-5.427,0-8.658-4.069-8.658-9.151
				c0-5.229,3.231-9.299,8.658-9.299c3.602,0,7.03,2.195,7.425,6.215h-3.699c-0.47-1.974-1.875-2.959-3.726-2.959
				c-3.479,0-4.786,2.959-4.786,6.043c0,2.938,1.308,5.896,4.786,5.896c2.541,0,3.972-1.333,4.193-3.799h-3.897v-2.887h7.401v9.521
				h-2.468L123.789,53.385z"/>
			<path fill="#B9B9B9" d="M141.377,55.383h-3.33v-1.775h-0.074c-0.889,1.455-2.417,2.121-3.896,2.121
				c-3.725,0-4.662-2.097-4.662-5.254V42.63h3.502v7.203c0,2.097,0.594,3.133,2.246,3.133c1.898,0,2.713-1.062,2.713-3.651V42.63
				h3.502V55.383L141.377,55.383z"/>
			<path fill="#B9B9B9" d="M143.894,46.552c0.196-3.256,3.133-4.268,5.994-4.268c2.541,0,5.6,0.567,5.6,3.626v6.636
				c0,1.16,0.123,2.317,0.444,2.836h-3.553c-0.123-0.396-0.223-0.813-0.246-1.233c-1.11,1.16-2.715,1.58-4.293,1.58
				c-2.441,0-4.342-1.209-4.342-3.824c0.049-5.797,8.635-2.688,8.485-5.551c0-1.479-1.036-1.727-2.271-1.727
				c-1.355,0-2.194,0.542-2.317,1.924L143.894,46.552L143.894,46.552z M151.983,49.143c-0.592,0.52-1.825,0.543-2.911,0.739
				c-1.085,0.197-2.07,0.593-2.07,1.875c0,1.283,1.011,1.628,2.146,1.628c2.738,0,2.837-2.146,2.837-2.936L151.983,49.143
				L151.983,49.143z"/>
			<path fill="#B9B9B9" d="M158.201,42.63h3.33v2.368h0.049c0.666-1.604,2.318-2.714,4.07-2.714c0.271,0,0.518,0.049,0.764,0.122
				v3.258c-0.319-0.074-0.838-0.124-1.258-0.124c-2.59,0-3.453,1.825-3.453,4.095v5.748h-3.502V42.63L158.201,42.63z"/>
			<path fill="#B9B9B9" d="M167.647,46.552c0.197-3.256,3.134-4.268,5.994-4.268c2.54,0,5.601,0.567,5.601,3.626v6.636
				c0,1.16,0.123,2.317,0.443,2.836h-3.553c-0.123-0.396-0.223-0.813-0.246-1.233c-1.11,1.16-2.715,1.58-4.293,1.58
				c-2.441,0-4.342-1.209-4.342-3.824c0.049-5.797,8.635-2.688,8.485-5.551c0-1.479-1.036-1.727-2.271-1.727
				c-1.356,0-2.195,0.542-2.318,1.924L167.647,46.552L167.647,46.552z M175.738,49.143c-0.592,0.52-1.824,0.543-2.91,0.739
				c-1.086,0.197-2.072,0.593-2.072,1.875c0,1.283,1.012,1.628,2.146,1.628c2.738,0,2.838-2.146,2.838-2.936L175.738,49.143
				L175.738,49.143z"/>
			<path fill="#B9B9B9" d="M181.955,42.63h3.33v1.776h0.074c0.887-1.456,2.416-2.122,3.896-2.122c3.725,0,4.66,2.097,4.66,5.254
				v7.845h-3.502V48.18c0-2.097-0.592-3.133-2.244-3.133c-1.898,0-2.715,1.061-2.715,3.65v6.686h-3.502L181.955,42.63L181.955,42.63
				z"/>
			<path fill="#B9B9B9" d="M201.021,42.63h2.564v2.343h-2.564v6.315c0,1.184,0.297,1.479,1.48,1.479c0.395,0,0.766-0.023,1.084-0.1
				v2.736c-0.592,0.101-1.355,0.125-2.047,0.125c-2.17,0-4.021-0.469-4.021-3.034v-7.524h-2.121v-2.343h2.121v-3.824h3.502v3.826
				H201.021z"/>
			<path fill="#B9B9B9" d="M208.15,49.857c0.102,2.244,1.16,3.229,3.135,3.229c1.404,0,2.541-0.862,2.762-1.651h3.084
				c-0.986,3.033-3.084,4.293-5.969,4.293c-4.021,0-6.514-2.765-6.514-6.711c0-3.822,2.641-6.733,6.514-6.733
				c4.342,0,6.463,3.651,6.191,7.573H208.15z M213.85,47.637c-0.316-1.775-1.084-2.713-2.787-2.713c-2.268,0-2.836,1.727-2.91,2.713
				H213.85z"/>
			<path fill="#B9B9B9" d="M222.311,49.857c0.102,2.244,1.16,3.229,3.133,3.229c1.406,0,2.541-0.862,2.766-1.651h3.084
				c-0.986,3.033-3.084,4.293-5.971,4.293c-4.021,0-6.514-2.765-6.514-6.711c0-3.822,2.641-6.733,6.514-6.733
				c4.342,0,6.463,3.651,6.189,7.573H222.311z M228.01,47.637c-0.32-1.775-1.086-2.713-2.787-2.713c-2.27,0-2.838,1.727-2.912,2.713
				H228.01z"/>
			<path fill="#B9B9B9" d="M242.686,53.755h-0.049c-0.813,1.381-2.221,1.974-3.873,1.974c-3.848,0-5.723-3.281-5.723-6.832
				c0-3.429,1.898-6.61,5.648-6.61c1.504,0,2.984,0.642,3.773,1.897h0.049V37.77h3.504v17.613h-3.33V53.755L242.686,53.755z
				 M239.627,44.924c-2.293,0-3.082,1.998-3.082,4.07c0,1.998,0.912,4.094,3.082,4.094c2.295,0,3.012-2.021,3.012-4.119
				C242.639,46.896,241.896,44.924,239.627,44.924z"/>
			<path fill="#B9B9B9" d="M248.83,51.584h3.871v3.799h-3.871V51.584z M252.578,42.506l-0.961,7.598h-1.752l-0.939-7.598V37.77
				h3.652V42.506L252.578,42.506z"/>
		</g>
	</g>
</g>
</svg>