<?xml version="1.0" encoding="utf-8"?>
<!-- Generator: Adobe Illustrator 16.0.0, SVG Export Plug-In . SVG Version: 6.00 Build 0)  -->
<!DOCTYPE svg PUBLIC "-//W3C//DTD SVG 1.1//EN" "http://www.w3.org/Graphics/SVG/1.1/DTD/svg11.dtd">
<svg version="1.1" id="Layer_1" xmlns="http://www.w3.org/2000/svg" xmlns:xlink="http://www.w3.org/1999/xlink" x="0px" y="0px"
	 width="652.703px" height="247.297px" viewBox="0 0 652.703 247.297" enable-background="new 0 0 652.703 247.297"
	 xml:space="preserve">
<g>
	<g>
		<path d="M308.012,138.85c-9.008,0.242-17.23-0.682-24.673-2.776c-2.114-0.563-4.544-1.609-7.283-3.14
			c-2.274-1.369-4.624-2.697-7.052-3.985c-2.427-1.287-3.641-3.261-3.641-5.917c0-1.69,0.45-3.119,1.351-4.287
			c0.899-1.166,2.134-1.75,3.7-1.75c2.663,0,5.171,1.369,7.521,4.105c4.07,4.75,9.789,7.848,17.153,9.299
			c2.976,0.563,5.834,0.844,8.576,0.844c4.621,0,8.616-0.844,11.985-2.535c4.386-2.252,6.579-5.514,6.579-9.782
			c0-2.494-0.861-5.029-2.586-7.607c-3.993-5.875-9.713-10.545-17.154-14.008c-3.838-1.77-10.534-4.709-20.092-8.814
			c-2.584-1.449-4.799-3.602-6.638-6.461C273.919,79.179,273,76.298,273,73.4c0-8.129,7.049-13.603,21.148-16.422
			c6.187-1.207,11.318-1.648,15.394-1.328c2.189,0.162,4.148,0.846,5.873,2.053c2.037,1.369,3.056,3.1,3.056,5.193
			c0,2.012-1.098,3.664-3.29,4.949c-0.235,0.162-0.55,0.243-0.939,0.243l-5.17-1.692c-0.784-0.24-1.489-0.439-2.114-0.604
			c-3.134-0.643-6.15-0.885-9.048-0.725c-2.35,0.163-6.619,1.57-12.807,4.227c-2.35,1.049-3.524,2.578-3.524,4.59
			c0,3.221,2.271,5.838,6.815,7.85c2.896,1.127,7.871,3.301,14.92,6.52c9.4,4.67,16.919,10.264,22.561,16.785
			c4.541,5.152,6.813,10.225,6.813,15.215c0,3.705-1.254,7.366-3.761,10.989C325.637,136.072,318.664,138.609,308.012,138.85z"/>
		<path d="M374.985,129.189c-1.88,2.819-4.036,4.951-6.464,6.399c-4.153,2.416-8.187,3.623-12.103,3.623
			c-5.484,0-10.185-2.455-14.1-7.364c-3.368-4.269-5.365-9.138-5.992-14.614c-0.313-2.657-0.472-4.991-0.472-7.004
			c0-8.212,2.037-13.604,6.111-16.181c0.469-0.322,0.979-0.482,1.527-0.482c1.018,0,1.881,0.463,2.585,1.387
			c0.704,0.928,1.058,1.953,1.058,3.08c0,0.564-0.111,1.168-0.337,1.811c-1.343,3.865-2.013,7.729-2.013,11.594
			c0,4.751,1.175,9.178,3.522,13.284c2.74,4.91,6.306,7.205,10.693,6.883c2.584-0.162,5.17-1.649,7.754-4.469
			c2.351-2.656,3.799-5.393,4.348-8.211c0.392-1.932,0.587-3.904,0.587-5.918c0-4.105-1.351-8.936-4.054-14.49
			c-2.701-5.554-4.052-8.411-4.052-8.572c0-1.127,0.485-2.072,1.467-2.838c0.979-0.764,2.057-1.148,3.231-1.148
			c1.174,0,2.074,0.203,2.702,0.605c2.74,1.689,4.896,5.717,6.463,12.074c1.251,4.993,1.879,9.702,1.879,14.129
			C379.331,119.289,377.881,124.764,374.985,129.189z"/>
		<path d="M390.846,98.156c3.211-5.313,7.949-8.091,14.218-8.332c5.169-0.16,9.163,4.75,11.984,14.732
			c1.956,7.166,2.938,14.329,2.938,21.495c0,9.258-1.371,13.805-4.111,13.645c-2.9-0.159-4.7-1.487-5.406-3.983
			c-0.234-0.805-0.353-3.34-0.353-7.606c0-8.455-0.233-14.29-0.695-17.51c-0.926-6.359-2.857-9.539-5.792-9.539
			c-0.772,0-1.584,0.202-2.434,0.604c-3.242,1.529-5.366,3.381-6.373,5.556c-1.006,2.172-1.391,5.233-1.153,9.176
			c0,2.415,0,4.951,0,7.608c0,9.258-1.763,13.928-5.289,14.008c-1.801,0.08-2.977-0.08-3.524-0.484
			c-0.938-0.481-1.409-1.526-1.409-3.141c0-1.043,0.117-2.555,0.354-4.527c0.234-1.971,0.353-3.479,0.353-4.526
			c0-2.978-0.372-7.428-1.116-13.344c-0.746-5.917-1.115-10.363-1.115-13.344c0-5.232,1.526-7.807,4.583-7.729
			c1.956,0.082,3.21,0.847,3.758,2.295C390.414,93.609,390.611,95.257,390.846,98.156z"/>
		<path d="M476.498,52.752c0.625-0.08,1.293-0.121,1.996-0.121c4.074,0,6.111,1.61,6.111,4.829c0,1.449-0.588,3.303-1.765,5.555
			c-1.879,3.545-3.918,5.314-6.108,5.314c-1.331,0-2.625-0.645-3.877-1.934c-1.255-1.286-2.115-2.614-2.585-3.984
			c-0.079-0.24-0.706-0.361-1.881-0.361c-2.35,0-6.895,0.443-13.629,1.328c-7.207,0.965-11.358,1.812-12.455,2.535
			c-2.038,1.289-2.897,4.066-2.584,8.332c-0.157,0.725-0.274,1.328-0.352,1.812c0,5.395,0.977,10.427,2.936,15.095
			c0.392,0.887,3.837,1.086,10.341,0.604c8.146-0.403,13.901-0.403,17.271,0c5.875,0.708,8.499,2.954,7.873,6.735
			c-0.159,0.709-0.747,1.576-1.764,2.602c-1.019,1.025-1.881,1.615-2.584,1.771c-1.334,0.242-3.018-0.079-5.054-0.967
			c-2.35-1.045-3.799-1.608-4.348-1.689c-0.629,0.081-2.82,0.201-6.579,0.361c-6.188,0.324-11.162,0.846-14.921,1.57
			c-0.55,4.912-0.785,7.77-0.705,8.574c0.155,1.529,1.096,5.233,2.818,11.109c1.565,5.475,2.351,9.299,2.351,11.471
			c0,2.014-0.433,3.424-1.293,4.227c-1.567,1.531-2.898,2.295-3.995,2.295c-0.469,0-0.863-0.041-1.175-0.121
			c-2.82-0.803-5.051-10.586-6.696-29.343l-3.055-36.467c-0.236-1.287-1.021-2.818-2.353-4.59c-1.565-2.092-2.507-3.502-2.817-4.227
			c-0.863-1.85-1.292-3.42-1.292-4.709c0-2.736,3.054-4.105,9.163-4.105c2.037,0,5.364,0.082,9.987,0.242
			c4.308,0.161,7.637,0.24,9.986,0.24c2.428,0,6.228-0.561,11.396-1.688C471.131,53.759,475.01,52.994,476.498,52.752z"/>
		<path d="M506.46,86.564c5.325,0.162,8.929,0.844,10.809,2.053c0.704,0.482,2.075,1.448,4.112,2.896
			c0.859,0.324,2.271,0.564,4.229,0.725c1.956,0.162,3.407,0.484,4.347,0.967c0.705,0.322,1.312,1.129,1.822,2.415
			c0.507,1.288,0.763,2.376,0.763,3.261c0,1.129-0.352,2.014-1.057,2.656c-1.489,1.369-3.135,2.053-4.935,2.053
			c-1.96,0-4.838-1.287-8.638-3.863c-3.8-2.576-6.246-3.904-7.344-3.986c-1.331-0.078-2.818,0.162-4.466,0.725
			c-1.879,0.646-3.095,1.492-3.642,2.537c-0.862,1.689-1.291,4.186-1.291,7.486c0,3.302,0.625,8.252,1.879,14.853
			c1.253,6.604,1.879,11.514,1.879,14.732c0,3.383-1.253,5.072-3.758,5.072c-1.805,0-3.487-1.008-5.054-3.021
			c-0.549-0.726-1.098-3.021-1.646-6.883c-0.704-5.07-1.39-8.713-2.056-10.927c-0.666-2.214-2.135-5.454-4.406-9.722
			c-2.114-3.943-3.173-6.6-3.173-7.971c0-1.045,0.45-1.971,1.354-2.777c0.897-0.803,1.896-1.207,2.993-1.207
			c1.099,0,2.47,0.686,4.113,2.053c0.236-0.32,0.665-1.57,1.293-3.743C496.627,89.865,500.585,86.402,506.46,86.564z"/>
		<path d="M568.552,129.672c-5.912,6.119-11.454,9.178-16.624,9.178c-5.483,0-9.635-2.574-12.455-7.727
			c-2.348-4.268-3.524-9.42-3.524-15.458c0-7.005,1.45-13.363,4.348-19.08c3.447-6.842,8.264-10.584,14.453-11.23
			c5.17-0.563,10.299,2.699,15.392,9.781c4.856,6.604,7.284,12.68,7.284,18.234C577.424,118.121,574.467,123.556,568.552,129.672z
			 M543.585,114.941c0,3.863,0.743,7.286,2.233,10.264c1.879,3.785,4.541,5.514,7.989,5.193c2.189-0.242,5.053-2.015,8.576-5.314
			c3.288-3.14,5.365-5.875,6.228-8.211c0.471-1.287,0.705-2.695,0.705-4.227c0-3.783-1.232-7.125-3.701-10.023
			c-2.469-2.896-5.542-4.346-9.224-4.346c-4.152,0-7.402,1.771-9.752,5.313C544.604,106.65,543.585,110.433,543.585,114.941z"/>
		<path d="M640.4,201.039c-4.779,9.016-14.334,13.525-28.67,13.525c-5.64,0-10.927-0.604-15.859-1.813
			c-8.461-2.094-16.606-4.83-24.441-8.211c-12.061-5.233-18.094-10.265-18.094-15.095c0-2.096,2.116-4.51,6.345-7.245
			c2.979-1.933,6.149-3.543,9.519-4.83c0.784-0.322,1.486-0.525,2.114-0.604c0.94-0.242,1.45-0.041,1.526,0.604
			c0.158,2.414-1.252,5.11-4.229,8.09s-4.464,4.388-4.464,4.228c0,1.528,4.071,3.864,12.219,7.004
			c13.313,5.072,24.791,7.606,34.427,7.606c4.698,0,7.989-0.162,9.868-0.481c8.537-1.449,12.807-7.246,12.807-17.39
			c0-5.959-1.526-13.483-4.581-22.579c-4.935-14.814-10.38-27.052-16.331-36.712l-2.352,2.658c-1.098,1.287-2.701,2.817-4.816,4.586
			c-3.604,3.142-6.345,4.711-8.225,4.711c-4.465,0.08-7.952-1.973-10.457-6.157c-2.194-3.541-3.25-7.769-3.172-12.681
			c0-4.748,1.135-9.699,3.406-14.852c2.897-6.764,6.893-11.109,11.983-13.043c2.978-1.125,5.914-1.609,8.813-1.449
			c3.368,0.162,6.269,1.651,8.695,4.469c1.486,1.689,2.351,3.742,2.584,6.158c0.078,0.403,0.117,2.697,0.117,6.883
			c0,0.966-0.155,2.396-0.469,4.287c-0.314,1.893-0.471,3.32-0.471,4.287c0.078,0.482,0.156,0.805,0.235,0.967
			c3.289,6.36,6.384,12.799,9.28,19.321c6.268,14.248,11.004,27.41,14.217,39.486c1.019,3.782,1.528,7.403,1.528,10.866
			C643.455,192.707,642.436,197.176,640.4,201.039z M604.211,100.812c-3.367,0.162-6.268,2.508-8.693,7.033
			c-2.039,3.963-3.055,7.845-3.055,11.646c0,2.102,0.391,4.043,1.173,5.82c1.02,2.265,2.47,3.396,4.35,3.396
			c2.819,0,5.521-2.305,8.106-6.915c2.271-4.04,3.445-7.68,3.523-10.914c0.078-2.83-0.156-5.014-0.703-6.549
			C608.049,101.904,606.482,100.734,604.211,100.812z"/>
	</g>
	<g>
		<path d="M266.422,179.898h12.25c0,5.11,5.531,5.965,8.298,6.086c2.306,0,5.597-0.486,5.597-3.043c0-4.748-25.29-2.74-25.29-18.258
			c0-9.007,9.222-13.082,15.676-13.082c5.532,0,11.13,1.643,13.766,6.205l0.657-5.111h11.328v15.274h-11.92
			c0-4.504-3.819-7.061-8.432-7.061c-1.908,0-4.542,1.096-4.542,3.227c0,6.269,26.08,4.808,26.08,19.109
			c0,9.491-9.616,12.899-17.454,12.899c-6.65,0-11.262-2.858-13.764-5.6l-0.725,4.688h-11.525V179.898L266.422,179.898z"/>
		<path d="M338.478,152.695v8.033h-4.084v9.188h12.516v-9.188h-3.887v-8.033h21.403v8.033h-3.819v26.473h3.819v8.033h-21.403v-8.033
			h3.887v-9.189h-12.516v9.189h4.084v8.033h-21.339v-8.033h3.621v-26.473h-3.621v-8.033H338.478z"/>
		<path d="M393.539,152.695v8.033h-4.083v26.412h4.083v8.094h-21.865v-8.094h4.15v-26.412h-4.15v-8.033H393.539z"/>
		<path d="M422.19,152.695c15.279,0,18.243,5.6,18.243,12.537c0,4.746-4.085,8.094-9.55,8.824c4.545,0.606,8.627,4.26,8.627,8.641
			c0,2.617,0.396,4.139,1.58,4.139c0.989,0,1.517-0.73,1.517-1.947v-2.008h4.411v3.346c0,5.051-2.305,9.738-9.614,9.738
			c-8.627,0-12.777-4.199-12.777-11.32c0-5.537-0.725-6.877-6.585-6.877v9.435h4.018v8.032h-21.273v-8.032h3.688v-26.533h-3.688
			v-7.973L422.19,152.695L422.19,152.695z M418.042,170.951h2.964c3.818,0,6.321-1.703,6.321-4.928c0-3.592-2.173-5.416-5.992-5.416
			h-3.293V170.951z"/>
		<path d="M496.815,168.518h-9.682v-7.789h-5.533v26.412h5.468v8.094h-24.5v-8.094h5.399v-26.412h-5.663v7.789h-9.681v-15.822h44.19
			L496.815,168.518L496.815,168.518z"/>
		<path d="M503.406,179.898h12.248c0,5.11,5.533,5.965,8.299,6.086c2.307,0,5.599-0.486,5.599-3.043
			c0-4.748-25.291-2.74-25.291-18.258c0-9.007,9.222-13.082,15.677-13.082c5.531,0,11.129,1.643,13.766,6.205l0.658-5.111h11.327
			v15.274h-11.923c0-4.504-3.817-7.061-8.43-7.061c-1.909,0-4.543,1.096-4.543,3.227c0,6.269,26.08,4.808,26.08,19.109
			c0,9.491-9.615,12.899-17.453,12.899c-6.65,0-11.263-2.858-13.766-5.6l-0.724,4.688h-11.524V179.898z"/>
	</g>
</g>
<g>
	<g>
		<path d="M237.143,124.969c0,63.236-51.265,114.5-114.501,114.5c-63.233,0-114.498-51.264-114.498-114.5
			c0-63.235,51.265-114.499,114.498-114.499C185.878,10.47,237.143,61.734,237.143,124.969z"/>
		
			<radialGradient id="SVGID_1_" cx="79.3047" cy="60.7275" r="162.0736" gradientTransform="matrix(1 0 0 -1 94 252.2969)" gradientUnits="userSpaceOnUse">
			<stop  offset="0" style="stop-color:#FFCC02"/>
			<stop  offset="0.3535" style="stop-color:#FFC903"/>
			<stop  offset="0.5742" style="stop-color:#FDC107"/>
			<stop  offset="0.7585" style="stop-color:#FBB20E"/>
			<stop  offset="0.9218" style="stop-color:#F89E18"/>
			<stop  offset="1" style="stop-color:#F6911E"/>
		</radialGradient>
		<circle fill="url(#SVGID_1_)" cx="122.642" cy="124.969" r="96.723"/>
		<g>
			<g>
				<defs>
					<circle id="SVGID_2_" cx="122.642" cy="124.969" r="96.723"/>
				</defs>
				<clipPath id="SVGID_3_">
					<use xlink:href="#SVGID_2_"  overflow="visible"/>
				</clipPath>
				<g clip-path="url(#SVGID_3_)">
					<g>
						<g>
							<path fill="#5BB947" d="M186.623,135.514l4.091-3.537l20.177-14.962l6.117,10.483c0,0-19.02,15.394-19.93,21.758
								c-0.909,6.363,18.578,17.127,18.578,17.127s-19.749,51.146-57.482,51.146l-14.742-22.813c0,0-25.315,9.078-38.214,14.607
								c-5.808,2.488-58.263-25.625-58.263-25.625l8.912-2.771c0,0,36.628,17.609,49.074,17.334
								c19.004-0.424,68.497-50.371,68.497-50.371L186.623,135.514z"/>
							<g>
								<path d="M189.151,136.408c7.695-6.65,16.104-12.444,24.269-18.5c-1.73-0.404-3.46-0.811-5.192-1.215
									c1.338,2.293,2.679,4.588,4.017,6.883c0.653,1.117,1.304,2.236,1.957,3.354c0.291,0.498,0.413-0.438,0.167-0.238
									c-0.279,0.228-0.554,0.455-0.829,0.685c-5.458,4.535-10.859,9.332-15.407,14.795c-1.563,1.879-3.798,4.49-3.771,7.093
									c0.03,2.991,2.933,5.657,4.95,7.51c4.392,4.026,9.566,7.338,14.771,10.223c-0.375-0.416-0.746-0.83-1.117-1.244
									c-3.396,8.76-8.37,17.115-13.93,24.645c-9.983,13.523-24.361,25.748-42,25.886c1.268,0.522,2.535,1.047,3.804,1.569
									c-4.914-7.604-9.827-15.207-14.742-22.813c-0.875-1.354-3.384-1.939-4.861-1.41c-7.866,2.822-15.701,5.73-23.504,8.719
									c-2.728,1.045-5.449,2.107-8.162,3.189c-1.876,0.75-5.219,2.422-6.446,2.686c-0.091,0.021,0.021,0.019-0.174-0.004
									c-0.606-0.063-0.133,0.008-1.006-0.195c-1.315-0.307-2.49-0.723-3.903-1.227c-15.574-5.543-30.419-13.684-45.032-21.344
									c-1.494-0.783-2.987-1.57-4.474-2.365c0.207,0.566,0.414,1.133,0.621,1.699c2.97-0.924,5.941-1.85,8.912-2.773
									c-1.258-0.158-2.517-0.315-3.774-0.475c5.507,2.645,11.106,5.107,16.738,7.475c9.169,3.854,18.609,7.75,28.391,9.742
									c7.356,1.498,13.343-0.066,19.888-3.547c8.301-4.418,15.874-10.225,23.17-16.111
									C158.9,165.844,173.782,150.834,189.151,136.408c1.108-1.039-3.862-2.91-5.058-1.789
									c-7.358,6.906-14.601,13.922-21.925,20.859c-13.651,12.928-27.957,25.977-44.095,35.752
									c-4.688,2.838-10.531,6.313-16.233,5.67c-8.108-0.912-16.185-4.479-23.688-7.486c-6.516-2.611-12.944-5.451-19.299-8.434
									c-1.769-0.83-3.502-1.668-5.513-1.041c-2.861,0.889-5.722,1.778-8.583,2.67c-1.242,0.385,0.123,1.432,0.622,1.699
									c12.035,6.446,24.237,12.643,36.652,18.325c6.492,2.974,13.373,6.429,20.448,7.763c3.533,0.666,5.659-0.314,8.957-1.664
									c5.601-2.291,11.259-4.445,16.922-6.576c5.742-2.158,11.498-4.281,17.272-6.354c-1.621-0.469-3.241-0.938-4.861-1.407
									c3.698,5.723,7.396,11.444,11.095,17.17c1.225,1.895,2.325,4.291,3.858,5.963c1.711,1.865,5.187,1.238,7.404,1.082
									c2.659-0.188,5.27-0.715,7.847-1.379c18.404-4.736,31.719-21.052,40.782-36.828c2.467-4.293,4.8-8.767,6.594-13.392
									c0.214-0.555-0.797-1.063-1.117-1.241c-3.246-1.802-6.365-3.861-9.357-6.056c-3.062-2.241-9.448-6.521-7.756-11.063
									c1.859-4.985,7.116-9.264,10.881-12.795c2.756-2.584,5.603-5.088,8.537-7.467c0.173-0.162,0.219-0.352,0.136-0.574
									c-2.041-3.494-4.079-6.986-6.117-10.48c-0.792-1.357-3.883-2.188-5.192-1.217c-8.169,6.057-16.578,11.85-24.27,18.5
									C182.985,135.578,187.898,137.492,189.151,136.408z"/>
							</g>
						</g>
						<path fill="#5BB947" d="M186.623,135.514l4.091-3.537l20.177-14.962l6.117,10.483c0,0-19.02,15.394-19.93,21.758
							c-0.909,6.363,18.578,17.127,18.578,17.127s-19.749,51.146-57.482,51.146l-14.742-22.813c0,0-25.315,9.078-38.214,14.607
							c-5.808,2.488-58.866-25.715-58.866-25.715l9.516-2.683c0,0,36.628,17.609,49.074,17.334
							c19.004-0.424,68.497-50.37,68.497-50.37L186.623,135.514z"/>
					</g>
					
						<radialGradient id="SVGID_4_" cx="272.4658" cy="212.0684" r="29.3634" fx="269.7328" fy="212.5906" gradientTransform="matrix(0.7356 1.0325 0.6342 -0.4314 -149.064 4.5575)" gradientUnits="userSpaceOnUse">
						<stop  offset="0" style="stop-color:#FFF02B"/>
						<stop  offset="0.3832" style="stop-color:#D3DF32"/>
						<stop  offset="0.7879" style="stop-color:#A0CC3A"/>
						<stop  offset="0.9818" style="stop-color:#A0CC3A;stop-opacity:0"/>
					</radialGradient>
					<path fill="url(#SVGID_4_)" d="M175.094,216.838c-13.209-17.93-17.571-26.502-16.442-40.006
						c-0.165-17.906,17.771-16.021,27.142-13.375c3.393,0.959,13.832,9.117,22.95,19.365
						C208.743,182.822,202.775,205.188,175.094,216.838z"/>
				</g>
			</g>
		</g>
		<polygon fill="#C5DC80" points="194.086,135.432 196.042,128.918 211.677,118.819 213.306,121.425 		"/>
		<path fill="#5BB947" d="M110.587,112.586c0,0-25.131,64.689-14.985,71.762c10.146,7.071,29.318,14.346,60.284-8.802
			c30.966-23.147,44.532-38.853,37.874-61.875C187.102,90.648,110.587,112.586,110.587,112.586z"/>
		<g>
			<path d="M92.79,162.143c-2.719,8.816-2.564,20.717,5.845,26.353c8.49,5.688,20.564,3.375,29.681,0.914
				c13.195-3.563,25.519-10.104,36.509-18.148c10.314-7.549,19.803-16.924,26.145-28.104c4.987-8.791,8.18-20.967,3.943-30.676
				c-3.114-7.131-11.256-8.887-18.169-9.975c-3.015-0.475-5.938-1.172-9-1.203c-3.704-0.035-7.435,0.51-11.091,1.041
				c-15.26,2.219-30.391,5.877-45.315,9.727c-1.138,0.293-1.322,1.93-1.674,2.91c-1.049,2.932-2.098,5.864-3.147,8.797
				c-2.969,8.299-5.939,16.598-8.908,24.899C96.001,153.164,94.395,157.652,92.79,162.143c-0.374,1.043,3.888,2.088,4.354,0.785
				c5.91-16.518,11.821-33.035,17.73-49.555c-0.249,0.167-0.499,0.334-0.749,0.502c14.438-3.74,29.051-7.174,43.787-9.502
				c3.772-0.596,7.585-1.119,11.409-1.17c2.68-0.035,5.579,0.795,8.362,1.244c3.351,0.541,6.867,1.199,9.6,3.359
				c3.716,2.938,4.801,7.826,5.014,12.321c0.573,12.053-4.959,22.691-12.338,31.837c-8.64,10.711-19.841,19.425-31.787,26.147
				c-6.094,3.433-12.527,6.265-19.17,8.449c-6.149,2.023-12.867,3.66-19.38,3.422c-7.594-0.276-12.41-5.153-13.662-12.455
				c-0.809-4.715-0.226-10.034,1.183-14.602C97.484,161.824,93.189,160.846,92.79,162.143z"/>
		</g>
		<path fill="#FFF02B" d="M110.771,190.04c0,0,12.956-6.253,23.599-27.089c5.107-9.212,28.89-25.672,42.147-29.975
			c12.796-4.152,16.445-10.536,17.007-11.91c0,0,3.031,5.287-3.707,21.015c-7.08,16.525-39.522,39.314-57.087,44.564
			S110.771,190.04,110.771,190.04z"/>
		<g>
			<path d="M106.766,187.684c2.803,0.275,5.687-0.014,8.401-0.729c4.061-1.074,6.321-4.076,8.74-7.258
				c6.551-8.619,12.025-18.496,19.641-26.23c8.541-8.668,19.522-14.196,30.52-19.021c4.48-1.965,8.975-3.978,13.117-6.603
				c2.766-1.75,5.953-4.143,6.57-7.567c0.105-0.584-2.084-0.855-2.204-0.201c-0.624,3.465-4.004,5.741-6.765,7.489
				c-3.952,2.506-8.311,4.383-12.581,6.264c-9.803,4.314-19.079,9.139-27.345,16.074c-8.089,6.785-13.589,16.336-19.708,24.818
				c-2.369,3.282-4.771,7.446-8.064,9.899c-2.75,2.051-6.902,2.512-10.244,2.185C105.544,186.676,105.467,187.557,106.766,187.684
				L106.766,187.684z"/>
		</g>
		<g>
			<path fill="#F05A22" d="M259.719,89.808c-1.796,0-3.483,0.448-4.968,1.234c-9.695,0.438-35.045,1.018-35.282-3.236
				c-0.276-4.979,8.021-18.254,17.7-13.553c1.444,0.703,2.708,1.287,3.849,1.795c1.669,2.422,4.463,4.013,7.63,4.013
				c5.116,0,9.265-4.147,9.265-9.264c0-3.685-2.156-6.858-5.272-8.351l0.018-0.086c0,0-0.168-0.049-0.478-0.127
				c-0.99-0.408-2.065-0.645-3.191-0.686c-6.336-1.137-19.531-2.292-28.689,5.237c-12.446,10.233-12.854,16.642-13.552,21.021
				c-0.857,5.355-1.965,18.078,3.463,33.635c2.39,6.854,12.445,16.594,19.912,16.042c0.143-0.01,0.271-0.035,0.404-0.056
				c0.276,0.033,0.555,0.056,0.841,0.056c3.895,0,7.051-3.158,7.051-7.053c0-3.558-2.633-6.49-6.054-6.976
				c-0.017-0.045-0.029-0.077-0.029-0.077s-10.681-0.347-12.341-6.431c-1.617-5.93-10.617-22.812,32.798-8.414
				c1.863,1.6,4.278,2.572,6.927,2.572c5.883,0,10.649-4.768,10.649-10.648S265.602,89.808,259.719,89.808z"/>
			<g>
				<path d="M259.465,89.357c-1.038,0.043-2.093,0.094-3.097,0.393c-0.866,0.256-1.845,0.84-2.741,0.879
					c-1.962,0.085-3.926,0.143-5.891,0.189c-4.71,0.111-9.426,0.119-14.135-0.074c-3.76-0.156-7.815-0.26-11.412-1.482
					c-3.445-1.17-0.532-6.027,0.646-8.014c2.454-4.141,7.251-8.715,12.463-7.187c2.896,0.85,4.721,2.624,6.979,4.399
					c1.78,1.4,4.12,1.941,6.33,2.042c3.993,0.181,8.232-2.163,9.679-6c0.942-2.496,0.896-4.952-0.071-7.427
					c-0.362-0.928-0.992-1.861-1.687-2.578c-0.093-0.096-2.722-2.275-2.77-2.037c0.047-0.225-0.364-0.392-0.511-0.43
					c-10.298-2.75-22.566-2.889-31.86,2.963c-5.188,3.268-10.102,8.439-13.073,13.813c-1.606,2.904-2.221,6.032-2.728,9.268
					c-0.793,5.094-0.804,10.293-0.367,15.42c0.578,6.83,1.888,14.734,5.236,20.795c4.34,7.855,15.897,17.465,25.402,12.539
					c2.698-1.398,4.266-4.979,3.479-7.9c-0.472-1.752-1.344-3.072-2.721-4.234c-0.453-0.385-3.264-1.482-3.209-1.337
					c-0.117-0.305-0.768-0.408-1.03-0.419c-3.648-0.138-8.013-1.113-10.379-4.093c-1.114-1.4-1.565-3.846-2.066-5.566
					c-0.999-3.42-1.317-7.471,2.479-9.188c3.347-1.514,7.81-0.719,11.266-0.153c6.825,1.118,14.342,2.79,20.346,6.216
					c4.45,2.538,10.287,1.566,14.023-1.707c4.521-3.957,4.294-10.977,0.523-15.283C266.268,90.532,262.849,89.476,259.465,89.357
					c-1.512-0.053-0.421,0.869,0.508,0.902c8.529,0.301,11.638,10.574,6.939,16.723c-3.002,3.928-8.472,4.657-12.507,1.924
					c-2.883-1.953-6.981-2.613-10.333-3.543c-6.908-1.916-16.725-4.967-23.758-1.785c-3.57,1.613-3.598,5.436-2.801,8.734
					c0.369,1.529,0.932,3.003,1.368,4.514c1.145,3.967,5.416,5.556,9.065,6.396c1.413,0.328,2.896,0.541,4.347,0.596
					c-0.343-0.141-0.688-0.279-1.033-0.42c0.116,0.295,0.491,0.4,0.773,0.455c2.233,0.438,3.709,1.768,4.709,3.745
					c1.794,3.545-0.437,7.785-3.898,9.144c-3.017,1.184-6.826-0.197-9.44-1.64c-3.02-1.668-5.648-4.145-7.889-6.74
					c-4.489-5.201-6.068-11.96-7.28-18.575c-1.042-5.681-1.326-11.511-0.921-17.269c0.215-3.02,0.605-6.141,1.396-9.07
					c1.242-4.615,4.298-8.475,7.565-11.846c5.213-5.383,10.975-8.973,18.443-10.076c3.079-0.456,6.225-0.428,9.318-0.184
					c1.03,0.081,7.497,1.025,7.502,1.006c-0.033,0.158,0.191,0.285,0.293,0.34c5.793,3.063,6.499,10.572,1.793,14.932
					c-1.543,1.429-3.731,2.057-5.794,1.963c-3.063-0.139-3.862-2.039-5.842-3.671c-1.5-1.235-4.471-2.341-6.404-2.765
					c-8.075-1.769-15.087,5.231-17.003,12.629c-0.654,2.529,0.482,3.486,2.766,4.264c3.434,1.166,7.301,1.32,10.889,1.523
					c4.711,0.268,9.438,0.268,14.154,0.194c2.105-0.032,4.209-0.093,6.312-0.168c0.768-0.028,1.537-0.061,2.304-0.095
					c1.685-0.074,3.168-1.16,4.967-1.234C261.48,90.197,260.418,89.318,259.465,89.357z"/>
			</g>
		</g>
		<path d="M146.373,133.664c0,1-0.506,1.816-1.131,1.816c-0.626,0-1.133-0.816-1.133-1.816c0-1.006,0.507-1.818,1.133-1.818
			C145.867,131.846,146.373,132.658,146.373,133.664z"/>
		<path d="M94.334,109.701c-42.634,10.852-40.007,33.641-29.551,47.734c12.548,16.912,24.095,14.549,38.188,8.185
			c14.093-6.365,14.093-30.459,14.093-30.459c0-15.913,4.546-22.278,29.096-17.731c24.55,4.545,48.645-18.186,32.278-45.007
			c-16.367-26.824-45.463-22.278-55.465,6.817C112.974,108.337,94.334,109.701,94.334,109.701z"/>
		<path fill="#FFFFFF" d="M143.385,65.505l8.02-4.701c0,0,24.062,0.552,27.38,30.975C178.785,91.779,170.765,66.335,143.385,65.505z
			"/>
		<path d="M40.069,179.035c0,0,3.491-0.365,3.928-0.619c0,0-2.5,0.207-4.073,0.002L40.069,179.035z"/>
		<g>
			<path fill="#F37B20" d="M54.638,180.354c0,0-3.073-4.237-5.528-13.729c-1.952-7.535-0.735-31.143-0.858-39.01
				c0.094-0.484,0.161-0.975,0.178-1.482c0.167-5.114-3.842-9.397-8.956-9.563c-1.056-0.035-2.07,0.115-3.024,0.41
				c-0.788-2.735-1.604-5.498-2.442-8.278c0.044-0.339,0.074-0.679,0.086-1.026c0.192-5.877-4.414-10.798-10.294-10.992
				c-5.877-0.191-10.798,4.415-10.991,10.293c-0.125,3.846,1.81,7.271,4.803,9.24c4.624,7.092,12.963,20.635,17.232,32.206
				c5.547,15.035,0.283,17.693-7.51,14.873c-1.233-1.323-4.802-5.508-6.756-5.571c-3.894-0.13-7.153,2.924-7.28,6.815
				c-0.129,3.896,2.923,7.151,6.818,7.278c0,0,4.705,1.867,12.404,4.869c1.492,0.582,7.314,1.816,8.504,1.937
				c0.654,1.174,3.278,3.978,4.441,4.771C46.544,184.129,54.638,180.354,54.638,180.354z"/>
			<path fill="#F37B20" d="M54.638,180.354c0,0-3.073-4.237-5.528-13.729c-1.952-7.535-0.735-31.143-0.858-39.01
				c0.094-0.484,0.161-0.975,0.178-1.482c0.167-5.114-3.842-9.397-8.956-9.563c-1.056-0.035-2.07,0.115-3.024,0.41
				c-0.788-2.735-1.604-5.498-2.442-8.278c0.044-0.339,0.074-0.679,0.086-1.026c0.192-5.877-4.414-10.798-10.294-10.992
				c-5.877-0.191-10.798,4.415-10.991,10.293c-0.125,3.846,1.81,7.271,4.803,9.24c4.624,7.092,12.963,20.635,17.232,32.206
				c5.547,15.035,0.283,17.693-7.51,14.873c-1.233-1.323-4.802-5.508-6.756-5.571c-3.894-0.13-7.153,2.924-7.28,6.815
				c-0.129,3.896,2.923,7.151,6.818,7.278c0,0,4.705,1.867,12.404,4.869c1.492,0.582,7.314,1.816,8.504,1.937
				c0.654,1.174,3.278,3.978,4.441,4.771C46.544,184.129,54.638,180.354,54.638,180.354z"/>
			<g>
				<path d="M56.784,180.297c-7.215-10.125-6.686-23.611-6.562-35.393c0.065-6.166-0.08-12.449,0.413-18.588
					c0.676-8.401-9.028-11.767-15.692-10.09c1.218,0.23,2.435,0.464,3.653,0.696c-0.597-2.067-1.204-4.134-1.818-6.195
					c-0.569-1.912-0.377-3.886-0.795-5.827c-0.604-2.797-2.425-5.113-4.716-6.744c-4.447-3.164-11-3.127-15.566-0.309
					c-5.201,3.209-6.371,10.08-3.42,15.174c0.685,1.182,1.724,2.178,2.767,3.037c1.087,0.896,1.754,2.277,2.5,3.455
					c1.85,2.922,3.633,5.885,5.362,8.877c3.726,6.448,7.17,13.108,9.791,20.088c1.258,3.354,4.607,11.934,0.259,14.594
					c-0.925,0.563-3.277,0.379-3.959-0.363c-1.791-1.949-3.57-4.01-5.95-5.252c-4.814-2.51-10.914,1.178-11.888,6.131
					c-0.672,3.416,1.657,6.436,4.454,8.002c0.69,0.387,1.566,0.666,2.338,0.818c0.29,0.057,1.76,0.387,1.093,0.121
					c0.807,0.32,1.615,0.639,2.422,0.957c6.39,2.52,12.612,5.156,19.483,6.02c-0.69-0.275-1.381-0.551-2.071-0.826
					c1.95,3.105,4.722,6.127,8.63,5.609c3.084-0.41,6.199-2.033,8.996-3.332c0.937-0.436-0.261-1.135-0.691-1.271
					c-0.956-0.311-2.117-0.367-3.043,0.063c-1.342,0.623-2.705,1.205-4.082,1.748c-0.967,0.383-1.95,0.726-2.951,1.008
					c-1.182,0.334,2.213,1.103,0.91-0.006c-0.772-0.658-1.475-1.426-2.148-2.181c-0.578-0.647-1.073-1.791-1.864-2.188
					c-0.74-0.371-1.641-0.406-2.446-0.555c-2.535-0.471-5.075-1.004-7.48-1.941c-2.965-1.158-5.928-2.32-8.889-3.486
					c-1.585-0.625-3.469-0.893-4.984-1.545c-3.522-1.516-4.023-6.196-2.353-9.178c0.484-0.865,2.786-3.395,3.986-2.619
					c1.325,0.854,2.438,2.101,3.513,3.236c1.601,1.695,2.846,2.236,5.135,2.771c1.891,0.438,4.006,0.559,5.902,0.092
					c3.93-0.963,4.581-4.615,4.199-8.178c-0.736-6.877-4.224-13.646-7.289-19.734c-3.143-6.246-6.722-12.275-10.463-18.179
					c-0.752-1.188-1.38-2.505-2.538-3.329c-1.953-1.387-3.181-3.633-3.721-5.921c-1.009-4.28,1.208-8.647,4.833-10.884
					c4.3-2.654,8.751,0.082,10.849,4.057c0.532,1.006,0.783,2.129,0.943,3.244c0.126,0.879-0.217,1.961,0.029,2.777
					c0.83,2.754,1.644,5.514,2.443,8.276c0.312,1.077,2.913,0.884,3.653,0.698c4.651-1.169,7.898,3.35,8.262,7.455
					c0.21,2.362-0.165,5.039-0.203,7.436c-0.101,6.365-0.27,12.729-0.221,19.098c0.074,9.715,0.835,20.463,6.697,28.689
					C53.271,181.504,57.415,181.182,56.784,180.297z"/>
			</g>
			<path fill="#F05A22" d="M54.638,180.354c0,0-3.073-4.237-5.528-13.729c-1.952-7.535-0.735-31.143-0.858-39.01
				c0.094-0.484,0.161-0.975,0.178-1.482c0.167-5.114-3.842-9.397-8.956-9.563c-1.056-0.035-2.07,0.115-3.024,0.41
				c-0.788-2.735-1.604-5.498-2.442-8.278c0.044-0.339,0.074-0.679,0.086-1.026c0.192-5.877-4.414-10.798-10.294-10.992
				c-5.877-0.191-10.798,4.415-10.991,10.293c-0.125,3.846,1.81,7.271,4.803,9.24c4.624,7.092,12.963,20.635,17.232,32.206
				c5.547,15.035,0.283,17.693-7.51,14.873c-1.233-1.323-4.802-5.508-6.756-5.571c-3.894-0.13-7.153,2.924-7.28,6.815
				c-0.129,3.896,2.923,7.151,6.818,7.278c0,0,4.705,1.867,12.404,4.869c1.492,0.582,7.314,1.816,8.504,1.937
				c0.654,1.174,3.278,3.978,4.441,4.771C46.544,184.129,54.638,180.354,54.638,180.354z"/>
			<polygon points="36.332,116.371 46.553,159.145 45.642,152.557 38.455,116.472 			"/>
		</g>
		<path d="M133.44,141.973c0.78,0.625,1.098,1.533,0.707,2.021c-0.394,0.487-1.345,0.373-2.125-0.254
			c-0.785-0.632-1.1-1.535-0.708-2.023C131.705,141.229,132.657,141.344,133.44,141.973z"/>
		<path fill="#C5DC80" d="M54.995,182.99c0,0,39.74,18.566,45.604,18.566c5.864,0,4.481-0.72-1.179-2.804
			C93.758,196.672,54.995,181.361,54.995,182.99z"/>
		<path fill="#F9AB76" d="M18.767,101.73c0,0,3.438-4.125,7.908-2.406c4.47,1.719,5.845,8.596,8.596,21.662
			c2.751,13.067,7.221,31.29,7.221,31.29l-3.095-5.5c0,0-10.315-41.949-15.817-42.98C18.079,102.763,18.767,101.73,18.767,101.73z"
			/>
		<path fill="#F9AB76" d="M250.173,75.598c0,0,5.503-4.813-1.376-8.595c-6.878-3.783-19.599-3.096-19.599-3.096
			s24.79-4.932,25.445,5.502C255.03,75.595,250.173,75.598,250.173,75.598z"/>
		<path fill="#F9AB76" d="M220.359,122.09c0,0,8.651,3.537,11.359,3.688c2.708,0.149,4.212,2.258,3.837,4.287
			c-0.376,2.033-1.729,1.883-3.462-0.301c-1.729-2.183-7.371-4.814-9.479-5.341C220.51,123.896,217.952,121.113,220.359,122.09z"/>
		<path fill="#F9AB76" d="M16.674,160.945c0,0,2.926-2.563,5.123-0.881c2.195,1.684,4.61,4.684,7.099,5.27
			c2.488,0.586,5.05,2.488-0.878,1.172C22.089,165.188,13.966,163.508,16.674,160.945z"/>
		<path fill="#F9AB76" d="M224.155,92.791c0,0,27.021,1.275,32.551-0.108c5.533-1.382,8.474,0.733,9.129,2.423
			c0.979,2.514,0.885,9.221-7.386,1.005c-1.256-1.247-29.316-1.659-32.359-1.937C223.049,93.898,224.155,92.791,224.155,92.791z"/>
	</g>
	<g>
		<path fill="#545454" d="M122.875,18.89c37.015,0,70.09,19.169,91.981,45.024c-20.399-29.845-53.992-49.329-91.981-49.329
			c-37.988,0-71.581,19.484-91.982,49.329C52.784,38.059,85.861,18.89,122.875,18.89z"/>
	</g>
	<g>
		<path fill="#545454" d="M138.949,224.227c-36.63,5.322-65.262-8.637-90.644-31.074c24.479,26.603,52.622,42.199,90.216,36.738
			c37.593-5.463,60.281-28.447,76.178-60.918C196.755,197.709,175.578,218.904,138.949,224.227z"/>
	</g>
</g>
</svg>